<?xml version="1.0" encoding="UTF-8"?>
<svg version="1.1" xmlns="http://www.w3.org/2000/svg" width="1000" height="500">
<path d="M0 0 C1.03417704 -0.00436032 1.03417704 -0.00436032 2.08924654 -0.00880873 C4.40461837 -0.01612042 6.71972617 -0.00915999 9.03509617 -0.002285 C10.70980562 -0.00458898 12.38451406 -0.00776507 14.05922037 -0.01173949 C18.66540633 -0.02010492 23.27150963 -0.01595428 27.87769592 -0.00976706 C32.84369178 -0.00525068 37.80967322 -0.0122223 42.77566624 -0.0177269 C52.50599796 -0.02663145 62.23629888 -0.0246941 71.96663182 -0.01890162 C79.8735965 -0.01438905 87.78055253 -0.01377047 95.68751812 -0.01594925 C96.811905 -0.01625572 97.93629187 -0.01656218 99.09475108 -0.01687793 C101.37877102 -0.01751737 103.66279097 -0.0181658 105.94681091 -0.01882312 C127.37668546 -0.02452959 148.80654293 -0.01796368 170.23641468 -0.00722238 C188.63127691 0.00171219 207.02611391 0.00016246 225.42097569 -0.00905991 C246.77142441 -0.01975903 268.12185814 -0.02397895 289.47230917 -0.01783538 C291.74834033 -0.01719827 294.02437148 -0.01656953 296.30040264 -0.01594925 C297.98026698 -0.01548642 297.98026698 -0.01548642 299.69406797 -0.01501425 C307.59263882 -0.01328614 315.49120017 -0.01620492 323.38976955 -0.02090836 C333.0139789 -0.02651327 342.63815562 -0.025009 352.26236122 -0.01434687 C357.17442889 -0.00908473 362.08644212 -0.00704264 366.99850941 -0.01364517 C371.49333928 -0.01959556 375.98806415 -0.01634455 380.48288447 -0.00569007 C382.11068998 -0.00345216 383.73850431 -0.00460106 385.36630415 -0.00944164 C387.57629459 -0.01551039 389.78592387 -0.00929813 391.99589539 0 C393.22423833 0.0003247 394.45258128 0.00064941 395.71814674 0.00098395 C399.13639895 0.25734695 401.87248339 1.02506289 405.06086826 2.25168228 C405.06086826 3.57168228 405.06086826 4.89168228 405.06086826 6.25168228 C405.72086826 6.25168228 406.38086826 6.25168228 407.06086826 6.25168228 C407.39086826 13.18168228 407.72086826 20.11168228 408.06086826 27.25168228 C408.39086826 26.92168228 408.72086826 26.59168228 409.06086826 26.25168228 C411.61330326 26.00536257 414.13824918 25.82704838 416.69758701 25.69699478 C417.49726398 25.65494919 418.29694096 25.61290359 419.12085056 25.56958389 C429.36818102 25.08029147 439.61680717 25.10096024 449.87336826 25.12668228 C450.89447697 25.12756851 451.91558567 25.12845474 452.96763706 25.12936783 C469.68355953 25.14635705 486.36277448 25.4517736 503.06086826 26.25168228 C503.06086826 26.58168228 503.06086826 26.91168228 503.06086826 27.25168228 C514.94086826 27.91168228 526.82086826 28.57168228 539.06086826 29.25168228 C539.06086826 29.91168228 539.06086826 30.57168228 539.06086826 31.25168228 C541.53586826 31.74668228 541.53586826 31.74668228 544.06086826 32.25168228 C544.06086826 32.91168228 544.06086826 33.57168228 544.06086826 34.25168228 C545.05086826 34.58168228 546.04086826 34.91168228 547.06086826 35.25168228 C548.03115716 38.16254897 548.22554674 40.15391913 548.24836826 43.18918228 C548.26254795 44.04383072 548.27672764 44.89847916 548.29133701 45.77902603 C548.04790383 48.39077531 547.37869506 50.0066888 546.06086826 52.25168228 C545.40086826 52.25168228 544.74086826 52.25168228 544.06086826 52.25168228 C544.06086826 52.91168228 544.06086826 53.57168228 544.06086826 54.25168228 C539.01550243 56.35391805 534.15785581 56.67337739 528.76789951 57.00558853 C525.96577071 57.15613739 525.96577071 57.15613739 523.06086826 58.25168228 C520.93674637 58.45803988 518.8079928 58.6180953 516.67805576 58.75168228 C515.4289542 58.83418228 514.17985264 58.91668228 512.89289951 59.00168228 C510.24709719 59.16884057 507.60126359 59.33550436 504.95539951 59.50168228 C503.70887608 59.58418228 502.46235264 59.66668228 501.17805576 59.75168228 C499.45498203 59.85996353 499.45498203 59.85996353 497.69709873 59.97043228 C495.13894187 59.96424078 495.13894187 59.96424078 494.06086826 61.25168228 C491.15461218 61.48417511 488.26926635 61.65363616 485.35774326 61.77902603 C484.46496677 61.82035156 483.57219028 61.86167709 482.65235996 61.90425491 C472.5423643 62.35230329 462.42787517 62.59203972 452.31086826 62.81418228 C450.42674802 62.85755701 448.54263339 62.90117587 446.65852451 62.94504166 C442.12603166 63.05005141 437.59347735 63.15182103 433.06086826 63.25168228 C433.06086826 63.58168228 433.06086826 63.91168228 433.06086826 64.25168228 C429.64427335 64.30984851 426.22780621 64.34533423 422.81086826 64.37668228 C421.35873936 64.401819 421.35873936 64.401819 419.87727451 64.42746353 C418.47541904 64.4371315 418.47541904 64.4371315 417.04524326 64.44699478 C416.18640537 64.45746841 415.32756748 64.46794205 414.4427042 64.47873306 C411.8818323 64.23461551 410.26575798 63.5415874 408.06086826 62.25168228 C408.05470493 63.2653688 408.05470493 63.2653688 408.04841709 64.29953384 C408.01547881 67.36780029 407.94483566 70.43408155 407.87336826 73.50168228 C407.86756748 74.56515884 407.8617667 75.62863541 407.85579014 76.72433853 C407.82678623 77.74914322 407.79778233 78.77394791 407.76789951 79.82980728 C407.74433384 81.24374771 407.74433384 81.24374771 407.72029209 82.68625259 C406.76222667 86.4135208 405.34334926 87.25738006 402.06086826 89.25168228 C398.74147828 89.84250504 395.46448833 89.79827189 392.10000706 89.77066422 C390.57990975 89.78191715 390.57990975 89.78191715 389.0291034 89.79339743 C385.62127241 89.81374295 382.21410344 89.80555593 378.80622959 89.79758072 C376.35707571 89.80630968 373.90792753 89.81678534 371.45878792 89.82887268 C366.15504702 89.85104784 360.85149822 89.8608875 355.54772663 89.85972977 C347.77082347 89.85806751 339.99410044 89.87887466 332.21724564 89.90463042 C318.59988422 89.94902451 304.98255814 89.9713635 291.36513418 89.98395371 C279.62193515 89.99489398 267.87877997 90.01354845 256.13560581 90.04013443 C255.36329803 90.0418751 254.59099026 90.04361576 253.79527921 90.04540917 C250.67658607 90.05245859 247.55789306 90.05955922 244.4392002 90.06673072 C216.92440076 90.13000073 189.40961177 90.17460585 161.89476074 90.2074222 C138.10467136 90.23596102 114.3148122 90.2947135 90.52485567 90.38040233 C79.82767879 90.41854166 69.13047552 90.44598283 58.43325806 90.46987152 C56.96744312 90.4731772 55.50162821 90.47649708 54.03581333 90.4798317 C52.96755887 90.48225518 52.96755887 90.48225518 51.87772352 90.48472762 C46.92780889 90.4965997 41.97794481 90.51510459 37.02806187 90.53622818 C30.60230075 90.56349197 24.17664978 90.57559762 17.75082111 90.57600784 C15.50187982 90.57848899 13.25293686 90.58600598 11.00403309 90.59923172 C8.03898806 90.61602939 5.0745236 90.61462574 2.10945225 90.60812759 C1.26573472 90.61734615 0.42201719 90.62656471 -0.44726753 90.63606262 C-5.31817819 90.60113217 -8.76248166 90.04140018 -12.93913174 87.25168228 C-15.89277005 79.93791122 -15.41531989 72.10886 -15.93913174 64.25168228 C-41.34913174 64.25168228 -66.75913174 64.25168228 -92.93913174 64.25168228 C-92.93913174 63.59168228 -92.93913174 62.93168228 -92.93913174 62.25168228 C-93.96909267 62.26328384 -94.99905361 62.27488541 -96.06022549 62.28683853 C-106.39400146 62.36511545 -116.63157704 61.97411415 -126.93913174 61.25168228 C-126.93913174 60.59168228 -126.93913174 59.93168228 -126.93913174 59.25168228 C-128.54981533 59.30388931 -128.54981533 59.30388931 -130.19303799 59.35715103 C-131.62922012 59.38531147 -133.06541935 59.41260919 -134.50163174 59.43918228 C-135.20610439 59.464319 -135.91057705 59.48945572 -136.63639736 59.51535416 C-142.87550371 59.60160908 -147.49995389 58.315602 -152.37663174 54.18918228 C-154.66516357 49.88674244 -154.59088011 46.02593541 -153.93913174 41.25168228 C-152.63546204 38.12287502 -151.74672202 36.7816634 -148.93913174 34.93918228 C-146.93913174 34.25168228 -146.93913174 34.25168228 -143.93913174 34.25168228 C-143.93913174 33.59168228 -143.93913174 32.93168228 -143.93913174 32.25168228 C-143.06587246 32.19633316 -142.19261318 32.14098404 -141.2928915 32.08395767 C-138.06298375 31.87704204 -134.83338021 31.66600038 -131.60392666 31.45212173 C-130.20429538 31.36028668 -128.8045541 31.27011276 -127.40470791 31.18161392 C-125.3963717 31.05436005 -123.38844467 30.92069898 -121.38053799 30.78683853 C-120.1708334 30.70828629 -118.96112881 30.62973404 -117.7147665 30.54880142 C-115.0337489 30.55557525 -115.0337489 30.55557525 -113.93913174 29.25168228 C-110.83987576 29.01967179 -107.75799515 28.84763456 -104.65397549 28.71652603 C-103.72315655 28.67354889 -102.79233761 28.63057175 -101.83331203 28.58629227 C-98.84793438 28.44948038 -95.86230945 28.31926517 -92.87663174 28.18918228 C-90.85773189 28.09781837 -88.83885133 28.00602718 -86.81999111 27.91379166 C-81.85991523 27.6881221 -76.89960779 27.46836996 -71.93913174 27.25168228 C-71.93913174 26.92168228 -71.93913174 26.59168228 -71.93913174 26.25168228 C-54.11913174 26.25168228 -36.29913174 26.25168228 -17.93913174 26.25168228 C-17.93913174 26.91168228 -17.93913174 27.57168228 -17.93913174 28.25168228 C-16.94913174 28.25168228 -15.95913174 28.25168228 -14.93913174 28.25168228 C-14.97393642 26.96133072 -15.00874111 25.67097916 -15.04460049 24.34152603 C-15.07275516 22.62409122 -15.10005351 20.90664222 -15.12663174 19.18918228 C-15.15176846 18.34162369 -15.17690517 17.49406509 -15.20280361 16.62082291 C-15.26715378 11.06525826 -14.82601873 7.06733542 -11.93913174 2.25168228 C-7.95909045 0.11080178 -4.46755098 0.00118112 0 0 Z " fill="#FFFFFF" transform="translate(302.93913173675537,204.74831771850586)"/>
<path d="M0 0 C4.20353982 3.15265487 4.20353982 3.15265487 5 6.25 C5.64097731 11.9119662 4.46504373 15.7978815 1 20.25 C-3.69568095 25.34425334 -9.58764253 28.71644617 -16 31.25 C-16.99 31.25 -17.98 31.25 -19 31.25 C-19 31.91 -19 32.57 -19 33.25 C-18.2575 33.476875 -17.515 33.70375 -16.75 33.9375 C-12.27967293 36.07106519 -9.91026732 39.78177815 -8 44.25 C-6.79500749 52.36268213 -8.84715738 58.82803846 -13.54296875 65.4140625 C-18.63778492 71.63976463 -25.02139118 76.52912359 -33 78.25 C-39.38482095 78.70605864 -44.96118473 78.39713432 -51 76.25 C-51.66 77.57 -52.32 78.89 -53 80.25 C-54.32 79.92 -55.64 79.59 -57 79.25 C-58.31402329 74.1355381 -57.49411918 70.64036821 -55.5625 65.875 C-55.28954102 65.17874512 -55.01658203 64.48249023 -54.73535156 63.76513672 C-51.62597752 56.0230391 -47.92544464 48.60572663 -44 41.25 C-43.6076416 40.51458984 -43.2152832 39.77917969 -42.81103516 39.02148438 C-37.31649846 28.79645065 -31.43129532 18.91247751 -25 9.25 C-25.53109375 9.4665625 -26.0621875 9.683125 -26.609375 9.90625 C-27.31578125 10.1846875 -28.0221875 10.463125 -28.75 10.75 C-29.44609375 11.0284375 -30.1421875 11.306875 -30.859375 11.59375 C-33 12.25 -33 12.25 -37 12.25 C-37 10.6 -37 8.95 -37 7.25 C-26.45480979 1.56332675 -11.92918497 -6.23571033 0 0 Z M-17 5.25 C-17.33644531 6.74080078 -17.33644531 6.74080078 -17.6796875 8.26171875 C-18.97230121 12.78814649 -21.42247537 16.25852625 -24.125 20.0625 C-27.56062994 24.29754534 -27.56062994 24.29754534 -29 29.25 C-19.06881079 27.6219362 -10.24335595 23.30762887 -3 16.25 C-0.95756065 13.27917913 -0.44904782 10.83118917 -1 7.25 C-2.77893225 5.10045687 -4.12736038 4.34835078 -6.90625 4.03515625 C-10.39343516 3.97660277 -13.66469926 4.13823309 -17 5.25 Z M-33 36.25 C-40.11786307 46.70436139 -46.08929395 58.90981915 -49 71.25 C-44.1447389 74.06153491 -39.46880671 73.94537145 -34 73.25 C-26.03712349 70.69823414 -20.87597022 66.23801085 -16.75 59.08203125 C-14.20970915 53.95734728 -13.16038468 49.94072607 -14 44.25 C-16.00160066 40.7357393 -18.08721317 38.55426228 -22 37.25 C-23.52021517 37.2066427 -25.04219473 37.20992606 -26.5625 37.25 C-30.77847114 37.36076443 -30.77847114 37.36076443 -33 36.25 Z " fill="#FFFFFF" transform="translate(311,332.75)"/>
<path d="M0 0 C2.0625 0.4375 2.0625 0.4375 4 1 C3.53949679 7.18390027 1.46439523 11.60462416 -1.5 17 C-1.9419873 17.82218018 -2.38397461 18.64436035 -2.83935547 19.49145508 C-6.98776276 27.13772733 -11.42306209 34.60393367 -16 42 C-15.31373535 41.81824219 -14.6274707 41.63648438 -13.92041016 41.44921875 C-10.822604 40.6302766 -7.72382112 39.81509276 -4.625 39 C-3.54476562 38.71382812 -2.46453125 38.42765625 -1.3515625 38.1328125 C-0.3203125 37.86210938 0.7109375 37.59140625 1.7734375 37.3125 C2.72653809 37.06113281 3.67963867 36.80976562 4.66162109 36.55078125 C7 36 7 36 9 36 C9.25974609 35.13342773 9.51949219 34.26685547 9.78710938 33.37402344 C11.01803488 29.94983051 12.52886088 27.1276124 14.40625 24.015625 C15.06753906 22.91605469 15.72882813 21.81648438 16.41015625 20.68359375 C16.75320801 20.1201123 17.09625977 19.55663086 17.44970703 18.97607422 C18.50328126 17.24460751 19.54719997 15.50759737 20.58984375 13.76953125 C25.71888951 5.28111049 25.71888951 5.28111049 28 3 C30.125 3.375 30.125 3.375 32 4 C31.50922583 9.07687855 30.45935238 12.56774603 27.83984375 16.93359375 C27.21142578 17.99384766 26.58300781 19.05410156 25.93554688 20.14648438 C25.27619141 21.23251953 24.61683594 22.31855469 23.9375 23.4375 C23.27427734 24.55060547 22.61105469 25.66371094 21.92773438 26.81054688 C20.29541336 29.54673965 18.6526699 32.27606686 17 35 C18.65 35 20.3 35 22 35 C22.625 36.875 22.625 36.875 23 39 C21 41 21 41 17.19140625 41.109375 C14.56313746 41.39171667 13.38585916 41.60355363 11.52294922 43.51757812 C10.15894144 45.70555141 9.03204127 47.91533241 7.9375 50.25 C7.52048828 51.08523193 7.10347656 51.92046387 6.67382812 52.78100586 C2.43353858 61.57504721 -0.55011057 70.7930063 -3.2890625 80.14672852 C-4 82 -4 82 -6 84 C-8.125 83.625 -8.125 83.625 -10 83 C-11.28473973 77.29575558 -10.55275751 73.701844 -8.0625 68.5625 C-7.74982178 67.88380859 -7.43714355 67.20511719 -7.11499023 66.50585938 C-6.10000532 64.32520621 -5.05561956 62.16125719 -4 60 C-3.63003906 59.24187012 -3.26007813 58.48374023 -2.87890625 57.70263672 C-0.62688295 53.11384703 1.67057523 48.54994138 4 44 C-0.38436188 45.09901338 -4.73995972 46.26733351 -9.08935547 47.49707031 C-11 48 -11 48 -13.94140625 48.5234375 C-17.60206115 49.40566106 -19.97895687 50.45722983 -22.11230469 53.68066406 C-27.59632647 63.73714133 -30.88915878 75.02231992 -34 86 C-37.875 85.125 -37.875 85.125 -39 84 C-38.86354203 76.22189589 -36.2002476 69.70790399 -33.375 62.57421875 C-32.38401636 59.99822435 -31.62047356 57.66225596 -31 55 C-32.98 55.495 -32.98 55.495 -35 56 C-35.33 54.35 -35.66 52.7 -36 51 C-35.29875 50.74089844 -34.5975 50.48179688 -33.875 50.21484375 C-24.92258709 46.23734508 -21.87529322 40.40917851 -17.95166016 31.97265625 C-16.4605593 28.8818161 -14.73356131 25.96220185 -13 23 C-9.71134449 17.30183451 -6.57978837 11.53592394 -3.52539062 5.70898438 C-1.09972426 1.09972426 -1.09972426 1.09972426 0 0 Z " fill="#FFFFFF" transform="translate(275,75)"/>
<path d="M0 0 C0.99 0.33 1.98 0.66 3 1 C2.835 1.78375 2.67 2.5675 2.5 3.375 C1.9376293 5.88208039 1.9376293 5.88208039 2 8 C3.093125 7.773125 4.18625 7.54625 5.3125 7.3125 C9 7 9 7 10.9375 8 C12.57307587 11.07873104 12.23691373 13.54883886 12 17 C8.58797208 26.04490242 3.82932816 35.12207348 -4.5 40.4375 C-8.08713936 42.0389015 -10.13823021 42.35106998 -14 42 C-14.99 42 -15.98 42 -17 42 C-18.56581247 45.4151578 -20.12706248 48.83238332 -21.6875 52.25 C-22.14721191 53.25313232 -22.60692383 54.25626465 -23.08056641 55.28979492 C-25.90033818 61.47398754 -28.55113865 67.65885115 -30.8671875 74.05078125 C-32 76 -32 76 -34.1328125 76.79296875 C-34.74898437 76.86128906 -35.36515625 76.92960937 -36 77 C-37.26816273 72.67239467 -36.68426909 70.26198596 -35 66.125 C-34.54238281 64.99964844 -34.08476563 63.87429688 -33.61328125 62.71484375 C-30.90855969 56.40041818 -27.97187474 50.19211941 -25 44 C-26.16595703 43.61714844 -26.16595703 43.61714844 -27.35546875 43.2265625 C-31.36833292 41.36535224 -32.05994992 38.88010016 -34 35 C-34.51949219 35.5053125 -35.03898438 36.010625 -35.57421875 36.53125 C-36.27160156 37.1809375 -36.96898437 37.830625 -37.6875 38.5 C-38.71423828 39.47453125 -38.71423828 39.47453125 -39.76171875 40.46875 C-42.43557491 42.29798493 -43.82317019 42.42887202 -47 42 C-49.58598831 39.77069973 -49.96464518 38.25253444 -50.4375 34.875 C-49.42322685 25.89143784 -44.86028698 16.21101201 -37.953125 10.2265625 C-36 9 -36 9 -33.75 9.3125 C-33.1725 9.539375 -32.595 9.76625 -32 10 C-33.37242434 13.80318586 -35.15262971 16.8609254 -37.4375 20.1875 C-40.75402786 25.27284272 -42.65653358 30.10154266 -44 36 C-35.94884045 31.82941649 -32.10757852 23.04963545 -28.921875 14.875 C-27.88553803 12.767196 -26.82690812 11.47180577 -25 10 C-22.8125 10.3125 -22.8125 10.3125 -21 11 C-21.39745931 14.87522827 -22.34923813 17.86176054 -24.0625 21.3125 C-26.13311968 25.77869062 -27.08845806 30.11664764 -26 35 C-25.03044338 36.02954357 -24.03256966 37.03366678 -23 38 C-22.39414062 36.89785156 -21.78828125 35.79570312 -21.1640625 34.66015625 C-16.7092614 26.58196146 -12.20736639 18.53320202 -7.5625 10.5625 C-6.9439917 9.49044312 -6.9439917 9.49044312 -6.31298828 8.39672852 C-4.45492279 5.23035506 -2.66847891 2.51596717 0 0 Z M0.140625 12.90625 C-6.65713994 18.6365973 -10.3708135 26.01772013 -14 34 C-14 34.66 -14 35.32 -14 36 C-11.07804329 36.42760342 -8.87648723 36.49412703 -6.25390625 35.015625 C-0.34587609 30.3313071 4.76614989 23.46754313 5.875 15.875 C5.91625 14.92625 5.9575 13.9775 6 13 C3.59227028 12.10509161 2.49749692 11.75752251 0.140625 12.90625 Z " fill="#FFFFFF" transform="translate(591,365)"/>
<path d="M0 0 C2.1875 0.3125 2.1875 0.3125 4 1 C3.50898122 6.59410683 1.32119122 10.41719174 -1.5 15.125 C-2.32727376 16.52086439 -3.15034741 17.91922846 -3.96875 19.3203125 C-4.51692383 20.23707764 -4.51692383 20.23707764 -5.07617188 21.17236328 C-6.04864817 23.09624212 -6.55663197 24.89632317 -7 27 C-2.69841543 22.88233116 0.94906457 19.13841757 4 14 C4.99 14 5.98 14 7 14 C6.55675802 21.0918717 0.92142548 26.34415866 -4.0625 30.875 C-6.4295671 32.89875202 -7.81109765 33.94123038 -10.8125 34.875 C-13.44265562 35.91211633 -13.44265562 35.91211633 -14.3125 39.6875 C-14.54195313 40.48542969 -14.77140625 41.28335938 -15.0078125 42.10546875 C-18.40979397 52.03014697 -24.73416977 64.7373796 -34.05078125 70.203125 C-36.93637729 71.38280755 -38.91213197 71.441124 -42 71 C-45.53362878 68.46500544 -46.81411284 66.98520193 -47.625 62.6875 C-46.13789438 53.91357683 -39.92817894 48.14287953 -33 43 C-30.77827609 41.75743106 -28.54872337 40.52878112 -26.3125 39.3125 C-18.91496944 34.99005533 -16.67564617 30.01472094 -14 22 C-14.42410156 22.53109375 -14.84820312 23.0621875 -15.28515625 23.609375 C-19.14064686 28.25291094 -22.40665214 31.61764814 -28 34 C-32.27906977 33.72093023 -32.27906977 33.72093023 -34 32 C-34 20.82391049 -27.51118587 11.85260341 -20 4 C-17 2 -17 2 -14.8125 2.375 C-14.214375 2.58125 -13.61625 2.7875 -13 3 C-13.49584603 7.23656682 -14.55406303 8.91808845 -17.75 11.6875 C-22.21577911 15.88822388 -24.61546386 20.40551135 -27 26 C-17.23502734 21.99385737 -10.92760977 14.00979074 -4.9453125 5.63671875 C-1.9761837 1.61229718 -1.9761837 1.61229718 0 0 Z M-35.890625 51.77734375 C-39.59801137 55.74568693 -40.77840858 58.5710103 -41 64 C-38.760165 64.95020416 -38.760165 64.95020416 -36 65 C-31.64542837 61.36647757 -29.22061904 57.26818449 -26.6875 52.3125 C-26.32849609 51.63638672 -25.96949219 50.96027344 -25.59960938 50.26367188 C-23.65944765 46.81614519 -23.65944765 46.81614519 -23 43 C-27.7778904 43 -32.56139416 48.64759162 -35.890625 51.77734375 Z " fill="#FFFFFF" transform="translate(415,119)"/>
<path d="M0 0 C2.7709912 2.18320519 2.99803984 3.17377891 3.5 6.6875 C2.57579153 15.00537619 -3.46002519 20.68819044 -9.6328125 25.89453125 C-14.31034135 29.4066419 -18.88490924 32.38157385 -24.9375 31.625 C-25.4325 29.645 -25.4325 29.645 -25.9375 27.625 C-22.8187489 25.71350739 -19.65378192 23.92719173 -16.4375 22.1875 C-11.08349404 19.2081113 -6.48419311 16.42580098 -3.9375 10.625 C-4.15079449 7.88260857 -4.15079449 7.88260857 -4.9375 5.625 C-13.58973049 5.90410421 -19.72738285 8.64791516 -26.0546875 14.625 C-30.12412607 19.08280822 -32.45696852 22.68174471 -33.4375 28.6875 C-32.34714338 37.27405838 -27.06808007 44.83465486 -22.13671875 51.78515625 C-19.62047234 55.64558642 -19.55668943 59.13143527 -19.9375 63.625 C-23.08644051 69.92288102 -27.83500052 73.39570775 -34.25 75.9375 C-41.44572628 77.27907609 -47.73569016 77.64046722 -54.2421875 73.88671875 C-57.03778767 71.80612231 -58.46050949 69.76360483 -59.9375 66.625 C-60.53170647 62.4655547 -60.19922943 60.2167361 -58.5 56.375 C-55.17202741 52.80351722 -51.72514998 51.44758851 -46.9375 50.625 C-46.2775 50.955 -45.6175 51.285 -44.9375 51.625 C-45.125 53.4375 -45.125 53.4375 -45.9375 55.625 C-46.7625 56.058125 -47.5875 56.49125 -48.4375 56.9375 C-51.28607528 58.48020742 -51.28607528 58.48020742 -52 62.0625 C-52.22108513 65.57413463 -52.22108513 65.57413463 -50.5625 68.0625 C-46.67550996 70.37618455 -43.35110207 70.37625142 -38.9375 69.625 C-36.68634269 68.73527513 -34.65714373 67.71642908 -32.56640625 66.5 C-30.9375 65.625 -30.9375 65.625 -28.9375 65.625 C-27.45898329 60.61190428 -27.33903263 56.95558751 -29.51171875 52.125 C-31.5253141 48.54554384 -33.72821372 45.08607701 -35.9375 41.625 C-39.34797968 35.99070068 -41.16962621 31.19997436 -39.9375 24.625 C-36.04869499 13.10195104 -27.47511502 6.03620771 -16.9375 0.625 C-11.33648517 -1.83944652 -5.68766753 -2.66231246 0 0 Z " fill="#FFFFFF" transform="translate(554.9375,332.375)"/>
<path d="M0 0 C-0.5453417 4.10824077 -1.79534108 6.42651254 -4.3125 9.6875 C-9.22573685 16.48111144 -12.9931728 23.39250237 -12 32 C-11.08885464 35.32186171 -11.08885464 35.32186171 -10 38 C-11.32 38.66 -12.64 39.32 -14 40 C-17.60691857 36.50943364 -18.9046531 35.20137088 -19.3125 30.0625 C-19.28413018 24.25614276 -17.21657695 19.29405656 -15 14 C-20.22294398 18.65143643 -23.78492958 23.55871695 -27.2265625 29.64453125 C-29.27885917 32.37037902 -30.79558695 32.99396334 -34 34 C-34.33 34.33 -34.66 34.66 -35 35 C-41.35294118 34.64705882 -41.35294118 34.64705882 -43.8125 32.1875 C-44.92119914 30.14515947 -45.9660984 28.08089056 -47 26 C-47.51949219 26.5053125 -48.03898437 27.010625 -48.57421875 27.53125 C-49.27160156 28.1809375 -49.96898437 28.830625 -50.6875 29.5 C-51.37199219 30.1496875 -52.05648438 30.799375 -52.76171875 31.46875 C-55.43557491 33.29798493 -56.82317019 33.42887202 -60 33 C-62.58598831 30.77069973 -62.96464518 29.25253444 -63.4375 25.875 C-62.42322685 16.89143784 -57.86028698 7.21101201 -50.953125 1.2265625 C-49 0 -49 0 -46.75 0.3125 C-46.1725 0.539375 -45.595 0.76625 -45 1 C-46.37242434 4.80318586 -48.15262971 7.8609254 -50.4375 11.1875 C-53.75402786 16.27284272 -55.65653358 21.10154266 -57 27 C-48.94884045 22.82941649 -45.10757852 14.04963545 -41.921875 5.875 C-40.88553803 3.767196 -39.82690812 2.47180577 -38 1 C-35.8125 1.3125 -35.8125 1.3125 -34 2 C-34.39745931 5.87522827 -35.34923813 8.86176054 -37.0625 12.3125 C-39.10730278 16.74665109 -40.25660496 21.16761475 -39 26 C-37.69727884 27.36325828 -36.36573379 28.69987433 -35 30 C-34.69296143 29.33991943 -34.38592285 28.67983887 -34.06958008 27.99975586 C-32.65782392 24.97554881 -31.23526676 21.95654167 -29.8125 18.9375 C-29.32974609 17.89916016 -28.84699219 16.86082031 -28.34960938 15.79101562 C-25.65460963 10.09353294 -22.86623676 4.98299254 -19 0 C-17.68 0.33 -16.36 0.66 -15 1 C-15.875 5.75 -15.875 5.75 -17 8 C-15.84371094 7.15115234 -15.84371094 7.15115234 -14.6640625 6.28515625 C-13.66117187 5.55167969 -12.65828125 4.81820312 -11.625 4.0625 C-10.62726563 3.33160156 -9.62953125 2.60070312 -8.6015625 1.84765625 C-5.08125246 -0.65250388 -4.0842704 -1.22528112 0 0 Z " fill="#FFFFFF" transform="translate(353,122)"/>
<path d="M0 0 C1.2375 7.15 1.2375 7.15 0 11 C0 11.99 0 12.98 0 14 C-0.91796875 15.90112305 -0.91796875 15.90112305 -2.1875 18.01171875 C-2.63867188 18.76904297 -3.08984375 19.52636719 -3.5546875 20.30664062 C-4.27011719 21.48516602 -4.27011719 21.48516602 -5 22.6875 C-5.47695313 23.48478516 -5.95390625 24.28207031 -6.4453125 25.10351562 C-7.62440393 27.07259831 -8.80946003 29.03782548 -10 31 C-4.41043888 26.51556452 -0.3654235 22.03372724 3.45703125 15.94140625 C4.22080078 14.98041016 4.22080078 14.98041016 5 14 C5.99 14 6.98 14 8 14 C7.05324447 20.86090372 2.79584156 26.95725528 -2.58740234 31.27246094 C-4.34171118 32.52704539 -6.10719877 33.76451421 -7.875 35 C-14.76970177 39.90893227 -17.95854245 45.59675131 -21.58007812 53.13256836 C-25.03739115 60.32496268 -29.1581322 67.96740269 -37 71 C-40.625 70.8125 -40.625 70.8125 -44 70 C-46.53762859 66.19355712 -46.51942559 64.52642303 -46 60 C-41.62075518 49.6323925 -32.53242448 44.41821603 -22.7578125 39.87109375 C-19.39303593 37.58819294 -18.86372925 35.89771492 -18 32 C-19.0828125 33.0209375 -19.0828125 33.0209375 -20.1875 34.0625 C-23 36 -23 36 -25.6875 35.875 C-28 35 -28 35 -30 33 C-30.91357617 23.90880297 -25.63938538 14.87241985 -20 7.9375 C-13.99644462 1.57984751 -8.83635754 -1.50051354 0 0 Z M-13.93359375 9.859375 C-18.3611049 14.44590829 -23.82591195 21.1700628 -24.125 27.75 C-24.08375 28.4925 -24.0425 29.235 -24 30 C-19.47053917 29.53280037 -17.68243057 28.10680359 -14.75 24.6875 C-14.06421875 23.90761719 -13.3784375 23.12773437 -12.671875 22.32421875 C-11.03466009 20.048184 -10.59063444 18.67140162 -10 16 C-8.7773414 14.17202517 -7.43423824 12.49593435 -6.05859375 10.78125 C-4.65940856 8.77224641 -4.65940856 8.77224641 -5 5 C-9.28854229 5 -10.84478005 7.06067087 -13.93359375 9.859375 Z M-25 45 C-34.58491372 51.5432962 -34.58491372 51.5432962 -39.875 61.4375 C-39.91625 62.283125 -39.9575 63.12875 -40 64 C-38.68 64.33 -37.36 64.66 -36 65 C-30.96011106 59.60011899 -26.91173648 53.83181749 -24 47 C-24.33 46.34 -24.66 45.68 -25 45 Z " fill="#FFFFFF" transform="translate(456,369)"/>
<path d="M0 0 C1 1 1 1 1.21655273 3.73071289 C0.5849825 13.26550094 -7.01168981 20.77188065 -13.5625 27.0625 C-14.34810303 27.8354541 -15.13370605 28.6084082 -15.94311523 29.40478516 C-21.52241759 34.8098939 -27.32160196 39.61729575 -33.69140625 44.0546875 C-36.08518412 46.07177951 -36.71833213 46.93600316 -37 50 C-36.45472656 49.46890625 -35.90945313 48.9378125 -35.34765625 48.390625 C-30.47367879 43.8249162 -25.6350516 39.61118844 -19 38 C-16.73828125 38.41015625 -16.73828125 38.41015625 -15 39 C-15.1953125 40.88671875 -15.1953125 40.88671875 -16 43 C-18.1796875 44.01953125 -18.1796875 44.01953125 -20.875 44.8125 C-24.55426771 46.07314405 -24.55426771 46.07314405 -27.29296875 48.66796875 C-28.21068026 50.73687006 -28.21068026 50.73687006 -29 54 C-29.226875 54.66 -29.45375 55.32 -29.6875 56 C-30.2687617 59.72007486 -30.70993888 63.58012223 -29 67 C-22.06910325 66.85560632 -18.72562784 63.86403536 -14 59 C-12.24396116 57.04884573 -10.61664945 55.07133211 -9 53 C-8.01 53.495 -8.01 53.495 -7 54 C-8.39165915 61.21423306 -14.37630737 67.06191462 -19.84765625 71.640625 C-23.40197198 73.88545599 -26.83744588 74.5817743 -31 74 C-34.07049877 71.85065086 -34.81691629 70.54925112 -36 67 C-36.0685495 65.10529184 -36.08480372 63.2083166 -36.0625 61.3125 C-36.05347656 60.31863281 -36.04445313 59.32476562 -36.03515625 58.30078125 C-36.02355469 57.54152344 -36.01195312 56.78226562 -36 56 C-42.16289078 64.38664331 -42.16289078 64.38664331 -48 73 C-49.32 72.67 -50.64 72.34 -52 72 C-51.40341878 66.68118432 -49.63488926 62.37555803 -47.4375 57.5625 C-47.07962402 56.77190186 -46.72174805 55.98130371 -46.35302734 55.16674805 C-37.29611162 35.40458174 -25.65475686 12.12388764 -7.0703125 -0.2421875 C-4.36807359 -1.23130891 -2.71918823 -0.82036526 0 0 Z M-15 12 C-17.02135408 14.34089203 -18.83765422 16.78992939 -20.625 19.3125 C-21.09719971 19.96677979 -21.56939941 20.62105957 -22.0559082 21.29516602 C-25.41969689 26.01822609 -28.36790733 30.82657647 -31 36 C-20.36096616 33.00777173 -11.84194813 21.01377921 -6.4375 12 C-4.78393991 9.10352879 -4.78393991 9.10352879 -5 6 C-9.62037592 6 -11.82429321 8.84919734 -15 12 Z " fill="#FFFFFF" transform="translate(389,334)"/>
<path d="M0 0 C3.47277071 2.49133551 4.81446199 3.94861792 5.5625 8.1875 C4.29817284 16.75682854 0.58262606 23.47972357 -5 30 C-5.44730469 30.54140625 -5.89460937 31.0828125 -6.35546875 31.640625 C-7.625 33.0625 -7.625 33.0625 -10 35 C-12.3125 34.8125 -12.3125 34.8125 -14 34 C-14.495 32.02 -14.495 32.02 -15 30 C-14.33613281 29.45472656 -13.67226563 28.90945312 -12.98828125 28.34765625 C-6.44770395 22.76190776 -0.47318022 17.39425455 0.3125 8.4375 C0.1578125 7.2309375 0.1578125 7.2309375 0 6 C-7.07077518 6.15044203 -10.84505304 9.40140482 -16 14 C-17.10021484 14.97646484 -17.10021484 14.97646484 -18.22265625 15.97265625 C-27.16743839 24.41261823 -33.96282914 34.44573138 -39.5 45.375 C-39.82621338 46.01638916 -40.15242676 46.65777832 -40.48852539 47.31860352 C-43.86221619 54.27510188 -46.43481784 62.21944143 -45 70 C-42.66246835 73.36879562 -41.22816989 74.69295753 -37.25 75.6875 C-26.17800374 73.34534694 -18.41196802 62.96415946 -12.3828125 54.13671875 C-10.98722202 52.06653309 -10.98722202 52.06653309 -10 50 C-9.01 50 -8.02 50 -7 50 C-8.35441437 59.53233406 -16.0737751 68.63034674 -23 75 C-29.73252172 79.75885092 -35.55424358 82.86113595 -44 82 C-47.7204201 80.64711996 -49.37711928 78.77552598 -51.3125 75.4375 C-54.82460586 67.56751584 -53.2553323 60.10590742 -50.3828125 52.26171875 C-42.19755245 32.9546788 -28.19450809 9.63054632 -8.39453125 0.84375 C-5.31639085 -0.24088022 -3.24255482 -0.47287258 0 0 Z " fill="#FFFFFF" transform="translate(539,79)"/>
<path d="M0 0 C0.99 0.33 1.98 0.66 3 1 C2.835 1.78375 2.67 2.5675 2.5 3.375 C1.9376293 5.88208039 1.9376293 5.88208039 2 8 C3.093125 7.773125 4.18625 7.54625 5.3125 7.3125 C9 7 9 7 10.9375 8 C12.57307587 11.07873104 12.23691373 13.54883886 12 17 C8.58797208 26.04490242 3.82932816 35.12207348 -4.5 40.4375 C-8.08713936 42.0389015 -10.13823021 42.35106998 -14 42 C-14.99 42 -15.98 42 -17 42 C-18.56581247 45.4151578 -20.12706248 48.83238332 -21.6875 52.25 C-22.14721191 53.25313232 -22.60692383 54.25626465 -23.08056641 55.28979492 C-25.90033818 61.47398754 -28.55113865 67.65885115 -30.8671875 74.05078125 C-32 76 -32 76 -34.1328125 76.79296875 C-34.74898437 76.86128906 -35.36515625 76.92960937 -36 77 C-37.29401932 72.62734952 -36.64587913 70.18995387 -34.93359375 66.015625 C-34.46550293 64.86900391 -33.99741211 63.72238281 -33.51513672 62.54101562 C-26.87859076 47.03078962 -19.72041742 31.85630322 -11.5 17.125 C-10.92515869 16.09213867 -10.35031738 15.05927734 -9.75805664 13.99511719 C-6.86574562 8.91225287 -3.93559892 4.33209583 0 0 Z M0.140625 12.90625 C-6.65713994 18.6365973 -10.3708135 26.01772013 -14 34 C-14 34.66 -14 35.32 -14 36 C-11.07804329 36.42760342 -8.87648723 36.49412703 -6.25390625 35.015625 C-0.34587609 30.3313071 4.76614989 23.46754313 5.875 15.875 C5.91625 14.92625 5.9575 13.9775 6 13 C3.59227028 12.10509161 2.49749692 11.75752251 0.140625 12.90625 Z " fill="#FFFFFF" transform="translate(623,365)"/>
<path d="M0 0 C0.495 0.495 0.495 0.495 1 1 C0.71954869 18.38798091 -14.33321579 33.26606884 -26 45 C-27.63524342 46.32567062 -29.28024436 47.63945248 -30.9375 48.9375 C-36.29841253 53.46257133 -37.54958292 59.34633841 -39 66 C-34.87391778 63.86606401 -32.84429497 61.7193982 -30.375 57.8125 C-28.6484375 55.08203125 -28.6484375 55.08203125 -27 53 C-26.01 53 -25.02 53 -24 53 C-24.18250108 60.11754201 -28.92492889 64.79896213 -33.62109375 69.6875 C-35.93261484 71.80089071 -37.65051085 72.93645652 -40.75 73.5 C-43 73 -43 73 -45 70 C-45.38865751 62.80447236 -42.96862623 56.44369948 -40.0625 50 C-39.66281006 49.09499756 -39.26312012 48.18999512 -38.85131836 47.25756836 C-15.75236138 -4.03906702 -15.75236138 -4.03906702 0 0 Z M-9.7265625 7.44140625 C-18.483536 17.22543219 -26.19615637 29.73975561 -31 42 C-30.67 42.66 -30.34 43.32 -30 44 C-19.74803307 34.41663961 -10.95152157 22.75088561 -5 10 C-5 8.68 -5 7.36 -5 6 C-7.99103235 5.67956627 -7.99103235 5.67956627 -9.7265625 7.44140625 Z " fill="#FFFFFF" transform="translate(682,333)"/>
<path d="M0 0 C-0.60698743 4.12751449 -2.03810791 7.3321148 -4 11 C-3.40832031 10.43410156 -2.81664062 9.86820313 -2.20703125 9.28515625 C-1.41683594 8.55167969 -0.62664063 7.81820312 0.1875 7.0625 C0.96480469 6.33160156 1.74210938 5.60070312 2.54296875 4.84765625 C5.13122646 2.90131937 6.81859299 2.35600114 10 2 C10.75 3.625 10.75 3.625 11 6 C9.0625 9.25 9.0625 9.25 7 12 C7.74765625 11.37351563 8.4953125 10.74703125 9.265625 10.1015625 C10.74289062 8.87566406 10.74289062 8.87566406 12.25 7.625 C13.22453125 6.81289062 14.1990625 6.00078125 15.203125 5.1640625 C17.46975124 3.41027627 19.33654538 2.01027589 22 1 C24.75 1.375 24.75 1.375 27 2 C26.45490617 6.01891214 24.44478409 7.94691015 21.6875 10.8125 C15.19258726 17.77656918 15.19258726 17.77656918 12.625 26.75 C12.7664244 30.14328031 12.7664244 30.14328031 15 33 C14.625 35.1875 14.625 35.1875 14 37 C11.1048317 36.70049983 10.16176506 36.19065168 8.25 33.9375 C5.61410999 27.74315848 6.95946405 22.12160786 9 16 C3.72122776 21.66731132 -0.89742065 27.426549 -5 34 C-5.99 33.67 -6.98 33.34 -8 33 C-7.55397709 26.30965634 -4.92654458 20.97187878 -2 15 C-8.57346777 21.43360675 -12.19647092 28.76865439 -16 37 C-17.32 36.67 -18.64 36.34 -20 36 C-19.53331591 29.42878693 -17.7612525 24.45383678 -14.875 18.5625 C-14.47265137 17.72936279 -14.07030273 16.89622559 -13.65576172 16.0378418 C-5.71150489 0 -5.71150489 0 0 0 Z " fill="#FFFFFF" transform="translate(621,120)"/>
<path d="M0 0 C-0.5453417 4.10824077 -1.79534108 6.42651254 -4.3125 9.6875 C-9.22573685 16.48111144 -12.9931728 23.39250237 -12 32 C-11.08885464 35.32186171 -11.08885464 35.32186171 -10 38 C-11.32 38.66 -12.64 39.32 -14 40 C-17.60691857 36.50943364 -18.9046531 35.20137088 -19.3125 30.0625 C-19.28413018 24.25614276 -17.21657695 19.29405656 -15 14 C-20.25217973 18.67747313 -23.83915315 23.63708451 -27.32421875 29.7421875 C-29 32 -29 32 -31.20703125 32.8203125 C-31.79871094 32.87960937 -32.39039063 32.93890625 -33 33 C-34.13797627 28.96372639 -33.90687028 26.91884833 -32.0859375 23.1640625 C-31.65410156 22.26429688 -31.22226562 21.36453125 -30.77734375 20.4375 C-30.31457031 19.509375 -29.85179687 18.58125 -29.375 17.625 C-28.93542969 16.70460938 -28.49585938 15.78421875 -28.04296875 14.8359375 C-25.44149676 9.49567243 -22.60350579 4.72228376 -19 0 C-17.68 0.33 -16.36 0.66 -15 1 C-15.875 5.75 -15.875 5.75 -17 8 C-15.84371094 7.15115234 -15.84371094 7.15115234 -14.6640625 6.28515625 C-13.66117187 5.55167969 -12.65828125 4.81820313 -11.625 4.0625 C-10.62726563 3.33160156 -9.62953125 2.60070312 -8.6015625 1.84765625 C-5.08125246 -0.65250388 -4.0842704 -1.22528112 0 0 Z " fill="#FFFFFF" transform="translate(429,374)"/>
<path d="M0 0 C-0.5453417 4.10824077 -1.79534108 6.42651254 -4.3125 9.6875 C-9.22573685 16.48111144 -12.9931728 23.39250237 -12 32 C-11.08885464 35.32186171 -11.08885464 35.32186171 -10 38 C-11.32 38.66 -12.64 39.32 -14 40 C-17.60691857 36.50943364 -18.9046531 35.20137088 -19.3125 30.0625 C-19.28413018 24.25614276 -17.21657695 19.29405656 -15 14 C-20.25217973 18.67747313 -23.83915315 23.63708451 -27.32421875 29.7421875 C-29 32 -29 32 -31.20703125 32.8203125 C-31.79871094 32.87960938 -32.39039063 32.93890625 -33 33 C-34.13797627 28.96372639 -33.90687028 26.91884833 -32.0859375 23.1640625 C-31.65410156 22.26429688 -31.22226562 21.36453125 -30.77734375 20.4375 C-30.31457031 19.509375 -29.85179687 18.58125 -29.375 17.625 C-28.93542969 16.70460937 -28.49585938 15.78421875 -28.04296875 14.8359375 C-25.44149676 9.49567243 -22.60350579 4.72228376 -19 0 C-17.68 0.33 -16.36 0.66 -15 1 C-15.875 5.75 -15.875 5.75 -17 8 C-15.84371094 7.15115234 -15.84371094 7.15115234 -14.6640625 6.28515625 C-13.66117187 5.55167969 -12.65828125 4.81820312 -11.625 4.0625 C-10.62726563 3.33160156 -9.62953125 2.60070312 -8.6015625 1.84765625 C-5.08125246 -0.65250388 -4.0842704 -1.22528112 0 0 Z " fill="#FFFFFF" transform="translate(384,122)"/>
<path d="M0 0 C2.04389147 1.5401154 2.88224867 2.46216285 3.43359375 4.98046875 C3.44425685 11.00512252 1.90051683 14.80785346 -1 20 C-3.03849552 24.89238924 -3.18008168 28.77763137 -3 34 C-1.68 34.33 -0.36 34.66 1 35 C0.67 36.65 0.34 38.3 0 40 C-5.46765734 39.51398601 -5.46765734 39.51398601 -7.8125 37.25 C-9.09600774 34.8180906 -9.62304851 32.71405075 -10 30 C-10.36351562 30.49371094 -10.72703125 30.98742187 -11.1015625 31.49609375 C-13.61861874 34.70372696 -15.24846273 36.71441584 -19.125 38.1875 C-22 38 -22 38 -24.375 36.5625 C-26.64182188 32.98789626 -26.68318022 30.05028273 -26 26 C-22.95390213 15.37288328 -17.37551914 6.91248955 -8 1 C-5.20129973 -0.39935013 -3.09501208 -0.25265405 0 0 Z M-9.9375 7.8125 C-15.18610802 12.72117227 -19.06960122 18.93312919 -19.875 26.125 C-19.91625 27.40375 -19.9575 28.6825 -20 30 C-18.68 30.33 -17.36 30.66 -16 31 C-11.8096225 26.60010363 -8.64262887 21.99306268 -5.625 16.75 C-5.26728516 16.13560059 -4.90957031 15.52120117 -4.54101562 14.88818359 C-2.94037734 12.04650461 -2 10.31469113 -2 7 C-5.55767598 5.63971213 -6.64007085 5.77791606 -9.9375 7.8125 Z " fill="#FFFFFF" transform="translate(334,369)"/>
<path d="M0 0 C0.495 0.495 0.99 0.99 1.5 1.5 C1.32071819 6.07168607 1.00606013 7.98243851 -2.25 11.3125 C-6.81560536 14.38550361 -9.96704032 15.81616912 -15.5 15.5 C-15.5 14.18 -15.5 12.86 -15.5 11.5 C-14.86191406 11.32984375 -14.22382812 11.1596875 -13.56640625 10.984375 C-12.74011719 10.74203125 -11.91382813 10.4996875 -11.0625 10.25 C-10.23878906 10.01796875 -9.41507813 9.7859375 -8.56640625 9.546875 C-6.30004532 8.69229321 -6.30004532 8.69229321 -5.71484375 6.390625 C-5.64394531 5.76671875 -5.57304688 5.1428125 -5.5 4.5 C-9.79917163 4.79146926 -12.65229884 5.03105893 -16.4375 7.125 C-19.32336361 10.44811568 -19.71391494 12.07909119 -19.5 16.5 C-18.10918288 19.15941091 -16.52130015 21.62612874 -14.890625 24.14453125 C-13.06947136 27.22923813 -12.62604824 29.00419296 -13.5 32.5 C-15.61868673 35.91076462 -17.59521119 38.19840373 -21.5 39.5 C-26.47725826 39.8686858 -29.54429615 39.66456308 -33.5 36.5 C-36.06632517 33.07823311 -35.86435051 29.65359579 -35.5 25.5 C-34.25 22.625 -34.25 22.625 -32.5 20.5 C-30.390625 19.8671875 -30.390625 19.8671875 -28.5 19.5 C-28.60699219 20.25925781 -28.71398437 21.01851563 -28.82421875 21.80078125 C-28.94410156 22.79464844 -29.06398438 23.78851563 -29.1875 24.8125 C-29.31511719 25.79863281 -29.44273437 26.78476562 -29.57421875 27.80078125 C-29.75151073 30.51090335 -29.75151073 30.51090335 -28.18359375 32.33984375 C-25.87407916 33.931319 -24.24129293 33.78855715 -21.5 33.5 C-21.005 33.005 -21.005 33.005 -20.5 32.5 C-20.69348771 27.85629502 -21.67652544 24.93214862 -24.0625 20.9375 C-26.21500455 17.24570441 -27.37049606 14.85248028 -26.5 10.5 C-23.81312986 5.0143068 -19.86417698 2.12970395 -14.5 -0.5 C-9.65596025 -2.00430141 -4.44636905 -2.66782143 0 0 Z " fill="#FFFFFF" transform="translate(744.5,369.5)"/>
<path d="M0 0 C0.495 0.495 0.99 0.99 1.5 1.5 C1.32071819 6.07168607 1.00606013 7.98243851 -2.25 11.3125 C-6.81560536 14.38550361 -9.96704032 15.81616912 -15.5 15.5 C-15.5 14.18 -15.5 12.86 -15.5 11.5 C-14.86191406 11.32984375 -14.22382813 11.1596875 -13.56640625 10.984375 C-12.74011719 10.74203125 -11.91382813 10.4996875 -11.0625 10.25 C-10.23878906 10.01796875 -9.41507812 9.7859375 -8.56640625 9.546875 C-6.30004532 8.69229321 -6.30004532 8.69229321 -5.71484375 6.390625 C-5.64394531 5.76671875 -5.57304687 5.1428125 -5.5 4.5 C-9.79917163 4.79146926 -12.65229884 5.03105893 -16.4375 7.125 C-19.32336361 10.44811568 -19.71391494 12.07909119 -19.5 16.5 C-18.10918288 19.15941091 -16.52130015 21.62612874 -14.890625 24.14453125 C-13.06947136 27.22923813 -12.62604824 29.00419296 -13.5 32.5 C-15.61868673 35.91076462 -17.59521119 38.19840373 -21.5 39.5 C-26.47725826 39.8686858 -29.54429615 39.66456308 -33.5 36.5 C-36.06632517 33.07823311 -35.86435051 29.65359579 -35.5 25.5 C-34.25 22.625 -34.25 22.625 -32.5 20.5 C-30.390625 19.8671875 -30.390625 19.8671875 -28.5 19.5 C-28.60699219 20.25925781 -28.71398437 21.01851562 -28.82421875 21.80078125 C-28.94410156 22.79464844 -29.06398438 23.78851563 -29.1875 24.8125 C-29.31511719 25.79863281 -29.44273437 26.78476563 -29.57421875 27.80078125 C-29.75151073 30.51090335 -29.75151073 30.51090335 -28.18359375 32.33984375 C-25.87407916 33.931319 -24.24129293 33.78855715 -21.5 33.5 C-21.005 33.005 -21.005 33.005 -20.5 32.5 C-20.69348771 27.85629502 -21.67652544 24.93214862 -24.0625 20.9375 C-26.21500455 17.24570441 -27.37049606 14.85248028 -26.5 10.5 C-23.81312986 5.0143068 -19.86417698 2.12970395 -14.5 -0.5 C-9.65596025 -2.00430141 -4.44636905 -2.66782143 0 0 Z " fill="#FFFFFF" transform="translate(457.5,117.5)"/>
<path d="M0 0 C2 2 2 2 2 5.0625 C0.86780382 11.16872658 -2.56405066 16.16248861 -7.48046875 19.87109375 C-11.23026809 22.1807929 -14.65605243 24.11919957 -19 25 C-18.67 25.99 -18.34 26.98 -18 28 C-15.00818583 29.49590709 -13.3583794 29.42743011 -10 29 C-4.135518 25.96809428 0.53817132 21.80504627 5 17 C5.99 17.33 6.98 17.66 8 18 C5.71672771 25.07440103 -0.20184088 29.68914591 -6.4140625 33.46875 C-10.95166962 35.65179122 -14.92400399 36.87853777 -20 36 C-22.9375 34 -22.9375 34 -25 31 C-25.75853521 25.21616905 -24.96467765 20.11151319 -22 15 C-9.65775342 -0.74290411 -9.65775342 -0.74290411 0 0 Z M-12.34765625 10.33984375 C-14.85832952 12.86238781 -17 15.34057481 -17 19 C-12.08060726 18.85092749 -9.66417075 16.23779353 -6.44921875 12.85546875 C-4.70555487 10.62301499 -4.0858517 8.83310613 -4 6 C-8.08838784 6 -9.39543186 7.69969382 -12.34765625 10.33984375 Z " fill="#FFFFFF" transform="translate(701,370)"/>
<path d="M0 0 C2 2 2 2 2 5.0625 C0.86780382 11.16872658 -2.56405066 16.16248861 -7.48046875 19.87109375 C-11.23026809 22.1807929 -14.65605243 24.11919957 -19 25 C-18.67 25.99 -18.34 26.98 -18 28 C-15.00818583 29.49590709 -13.3583794 29.42743011 -10 29 C-4.135518 25.96809428 0.53817132 21.80504627 5 17 C5.99 17.33 6.98 17.66 8 18 C5.71672771 25.07440103 -0.20184088 29.68914591 -6.4140625 33.46875 C-10.95166962 35.65179122 -14.92400399 36.87853777 -20 36 C-22.9375 34 -22.9375 34 -25 31 C-25.75853521 25.21616905 -24.96467765 20.11151319 -22 15 C-9.65775342 -0.74290411 -9.65775342 -0.74290411 0 0 Z M-12.34765625 10.33984375 C-14.85832952 12.86238781 -17 15.34057481 -17 19 C-12.08060726 18.85092749 -9.66417075 16.23779353 -6.44921875 12.85546875 C-4.70555487 10.62301499 -4.0858517 8.83310613 -4 6 C-8.08838784 6 -9.39543186 7.69969382 -12.34765625 10.33984375 Z " fill="#FFFFFF" transform="translate(755,118)"/>
<path d="M0 0 C2 2 2 2 2 5.0625 C0.86780382 11.16872658 -2.56405066 16.16248861 -7.48046875 19.87109375 C-11.23026809 22.1807929 -14.65605243 24.11919957 -19 25 C-18.67 25.99 -18.34 26.98 -18 28 C-15.00818583 29.49590709 -13.3583794 29.42743011 -10 29 C-4.135518 25.96809428 0.53817132 21.80504627 5 17 C5.99 17.33 6.98 17.66 8 18 C5.71672771 25.07440103 -0.20184088 29.68914591 -6.4140625 33.46875 C-10.95166962 35.65179122 -14.92400399 36.87853777 -20 36 C-22.9375 34 -22.9375 34 -25 31 C-25.75853521 25.21616905 -24.96467765 20.11151319 -22 15 C-9.65775342 -0.74290411 -9.65775342 -0.74290411 0 0 Z M-12.34765625 10.33984375 C-14.85832952 12.86238781 -17 15.34057481 -17 19 C-12.08060726 18.85092749 -9.66417075 16.23779353 -6.44921875 12.85546875 C-4.70555487 10.62301499 -4.0858517 8.83310613 -4 6 C-8.08838784 6 -9.39543186 7.69969382 -12.34765625 10.33984375 Z " fill="#FFFFFF" transform="translate(670,118)"/>
<path d="M0 0 C2 2 2 2 2 5.0625 C0.86780382 11.16872658 -2.56405066 16.16248861 -7.48046875 19.87109375 C-11.23026809 22.1807929 -14.65605243 24.11919957 -19 25 C-18.67 25.99 -18.34 26.98 -18 28 C-15.00818583 29.49590709 -13.3583794 29.42743011 -10 29 C-4.135518 25.96809428 0.53817132 21.80504627 5 17 C5.99 17.33 6.98 17.66 8 18 C5.71672771 25.07440103 -0.20184088 29.68914591 -6.4140625 33.46875 C-10.95166962 35.65179122 -14.92400399 36.87853777 -20 36 C-22.9375 34 -22.9375 34 -25 31 C-25.75853521 25.21616905 -24.96467765 20.11151319 -22 15 C-9.65775342 -0.74290411 -9.65775342 -0.74290411 0 0 Z M-12.34765625 10.33984375 C-14.85832952 12.86238781 -17 15.34057481 -17 19 C-12.08060726 18.85092749 -9.66417075 16.23779353 -6.44921875 12.85546875 C-4.70555487 10.62301499 -4.0858517 8.83310613 -4 6 C-8.08838784 6 -9.39543186 7.69969382 -12.34765625 10.33984375 Z " fill="#FFFFFF" transform="translate(594,118)"/>
<path d="M0 0 C0.99 0.33 1.98 0.66 3 1 C2.42722418 4.31494005 1.48387476 5.8234302 -1 8.0625 C-3.32153151 10.16638793 -3.96800848 10.90402543 -5 14 C1.12622469 11.79033067 1.12622469 11.79033067 7 9 C7 13 7 13 5.78515625 14.66796875 C1.04770784 18.84680647 -2.7091694 19.97147016 -9 20 C-9.99 18.35 -10.98 16.7 -12 15 C-18.11632412 20.21637452 -22.07484921 25.9784962 -25.85327148 32.98266602 C-28.53975412 37.8087599 -28.53975412 37.8087599 -31.265625 38.94140625 C-31.83796875 38.96074219 -32.4103125 38.98007813 -33 39 C-34.97454487 33.70950749 -32.63449047 29.66693577 -30.5 24.8125 C-30.13559814 23.96623047 -29.77119629 23.11996094 -29.39575195 22.24804688 C-26.11747147 14.85148427 -22.24814932 7.34827999 -16 2 C-13.8125 2.3125 -13.8125 2.3125 -12 3 C-13.19976433 6.08510827 -14.50002556 9.05047042 -16 12 C-15.01257813 11.21753906 -14.02515625 10.43507812 -13.0078125 9.62890625 C-11.71361509 8.60667786 -10.41934024 7.58454753 -9.125 6.5625 C-8.47402344 6.04623047 -7.82304688 5.52996094 -7.15234375 4.99804688 C-6.52714844 4.50498047 -5.90195312 4.01191406 -5.2578125 3.50390625 C-4.6817627 3.04830322 -4.10571289 2.5927002 -3.51220703 2.12329102 C-2 1 -2 1 0 0 Z " fill="#FFFFFF" transform="translate(711,118)"/>
<path d="M0 0 C0.99 0.33 1.98 0.66 3 1 C2.42722418 4.31494005 1.48387476 5.8234302 -1 8.0625 C-3.32153151 10.16638793 -3.96800848 10.90402543 -5 14 C1.12622469 11.79033067 1.12622469 11.79033067 7 9 C7 13 7 13 5.78515625 14.66796875 C1.04770784 18.84680647 -2.7091694 19.97147016 -9 20 C-9.99 18.35 -10.98 16.7 -12 15 C-18.11632412 20.21637452 -22.07484921 25.9784962 -25.85327148 32.98266602 C-28.53975412 37.8087599 -28.53975412 37.8087599 -31.265625 38.94140625 C-31.83796875 38.96074219 -32.4103125 38.98007813 -33 39 C-34.97454487 33.70950749 -32.63449047 29.66693577 -30.5 24.8125 C-30.13559814 23.96623047 -29.77119629 23.11996094 -29.39575195 22.24804688 C-26.11747147 14.85148427 -22.24814932 7.34827999 -16 2 C-13.8125 2.3125 -13.8125 2.3125 -12 3 C-13.19976433 6.08510827 -14.50002556 9.05047042 -16 12 C-15.01257813 11.21753906 -14.02515625 10.43507812 -13.0078125 9.62890625 C-11.71361509 8.60667786 -10.41934024 7.58454753 -9.125 6.5625 C-8.47402344 6.04623047 -7.82304688 5.52996094 -7.15234375 4.99804688 C-6.52714844 4.50498047 -5.90195312 4.01191406 -5.2578125 3.50390625 C-4.6817627 3.04830322 -4.10571289 2.5927002 -3.51220703 2.12329102 C-2 1 -2 1 0 0 Z " fill="#FFFFFF" transform="translate(566,118)"/>
<path d="M0 0 C1.32 0.33 2.64 0.66 4 1 C3.0880133 5.25033344 1.00699072 8.60932473 -1.1875 12.3125 C-5.12451201 19.06289219 -8.05243422 25.80866192 -10.61328125 33.18359375 C-12 36 -12 36 -14.16796875 36.91015625 C-14.77253906 36.93980469 -15.37710938 36.96945312 -16 37 C-18.41369602 28.8743898 -12.79580115 20.26892044 -9.0625 13.1875 C-6.41105388 8.49065259 -3.38747741 4.1923036 0 0 Z " fill="#FFFFFF" transform="translate(676,371)"/>
<path d="M0 0 C1.32 0.33 2.64 0.66 4 1 C3.0880133 5.25033344 1.00699072 8.60932473 -1.1875 12.3125 C-5.12451201 19.06289219 -8.05243422 25.80866192 -10.61328125 33.18359375 C-12 36 -12 36 -14.16796875 36.91015625 C-14.77253906 36.93980469 -15.37710937 36.96945312 -16 37 C-18.41369602 28.8743898 -12.79580115 20.26892044 -9.0625 13.1875 C-6.41105388 8.49065259 -3.38747741 4.1923036 0 0 Z " fill="#FFFFFF" transform="translate(395,371)"/>
<path d="M0 0 C1.32 0.33 2.64 0.66 4 1 C3.0880133 5.25033344 1.00699072 8.60932473 -1.1875 12.3125 C-5.12451201 19.06289219 -8.05243422 25.80866192 -10.61328125 33.18359375 C-12 36 -12 36 -14.16796875 36.91015625 C-14.77253906 36.93980469 -15.37710938 36.96945313 -16 37 C-18.41369602 28.8743898 -12.79580115 20.26892044 -9.0625 13.1875 C-6.41105388 8.49065259 -3.38747741 4.1923036 0 0 Z " fill="#FFFFFF" transform="translate(729,119)"/>
<path d="M0 0 C1.32 0.33 2.64 0.66 4 1 C3.3928642 4.64281481 1.85769366 6.77151599 -0.4375 9.625 C-1.36369141 10.78902344 -1.36369141 10.78902344 -2.30859375 11.9765625 C-4 14 -4 14 -6 16 C-6.99 16 -7.98 16 -9 16 C-8.47515308 11.44299575 -6.68492697 8.807126 -3.9375 5.1875 C-3.20402344 4.21167969 -2.47054687 3.23585938 -1.71484375 2.23046875 C-1.14894531 1.49441406 -0.58304688 0.75835937 0 0 Z " fill="#FFFFFF" transform="translate(604,94)"/>
<path d="M0 0 C0.8353125 0.37125 0.8353125 0.37125 1.6875 0.75 C1.3727134 4.21265264 0.98483158 6.33585959 -1.0625 9.1875 C-3.3125 10.75 -3.3125 10.75 -6.0625 10.5 C-6.805 10.2525 -7.5475 10.005 -8.3125 9.75 C-8.04885952 5.88327295 -7.71083655 4.16986825 -5 1.3125 C-2.3125 -0.25 -2.3125 -0.25 0 0 Z " fill="#FFFFFF" transform="translate(690.3125,350.25)"/>
<path d="M0 0 C0.8353125 0.37125 0.8353125 0.37125 1.6875 0.75 C1.3727134 4.21265264 0.98483158 6.33585959 -1.0625 9.1875 C-3.3125 10.75 -3.3125 10.75 -6.0625 10.5 C-6.805 10.2525 -7.5475 10.005 -8.3125 9.75 C-8.04885952 5.88327295 -7.71083655 4.16986825 -5 1.3125 C-2.3125 -0.25 -2.3125 -0.25 0 0 Z " fill="#FFFFFF" transform="translate(409.3125,350.25)"/>
<path d="M0 0 C0.8353125 0.37125 0.8353125 0.37125 1.6875 0.75 C1.3727134 4.21265264 0.98483158 6.33585959 -1.0625 9.1875 C-3.3125 10.75 -3.3125 10.75 -6.0625 10.5 C-6.805 10.2525 -7.5475 10.005 -8.3125 9.75 C-8.04885952 5.88327295 -7.71083655 4.16986825 -5 1.3125 C-2.3125 -0.25 -2.3125 -0.25 0 0 Z " fill="#FFFFFF" transform="translate(743.3125,98.25)"/>
</svg>
