<?xml version="1.0" encoding="UTF-8"?>
<svg version="1.1" xmlns="http://www.w3.org/2000/svg" width="1000" height="500">
<path d="M0 0 C0.83633028 -0.00301597 1.67266056 -0.00603194 2.53433418 -0.0091393 C3.91529176 -0.00648509 3.91529176 -0.00648509 5.32414746 -0.00377727 C6.30476856 -0.0058299 7.28538965 -0.00788253 8.29572654 -0.00999737 C11.61355833 -0.01569542 14.93134899 -0.01420667 18.24918485 -0.0127914 C20.63916986 -0.01537342 23.02915445 -0.01838613 25.41913843 -0.0217948 C31.31923047 -0.02903704 37.21931411 -0.03156835 43.11940955 -0.03212385 C50.1838688 -0.03303654 57.24831964 -0.03970123 64.31277528 -0.04647068 C81.38875081 -0.06254272 98.46472546 -0.06843525 115.5407072 -0.07321942 C123.61608422 -0.07555409 131.69146054 -0.07915659 139.76683701 -0.0829148 C167.40056368 -0.09575114 195.03428995 -0.10647045 222.66801953 -0.1099174 C224.40321976 -0.11013904 226.13842 -0.11036082 227.87362023 -0.11058275 C229.61305186 -0.1108034 231.3524835 -0.11102388 233.09191513 -0.1112442 C236.58161457 -0.11168676 240.07131402 -0.11213387 243.56101346 -0.11258388 C244.42625825 -0.11269327 245.29150304 -0.11280266 246.18296737 -0.11291536 C274.24505114 -0.11654683 302.30710909 -0.13246981 330.36918297 -0.15577424 C360.02637666 -0.18035839 389.68355558 -0.19408958 419.34075975 -0.19528532 C422.59503754 -0.19545678 425.84931533 -0.19567221 429.10359311 -0.19591975 C429.90490893 -0.19597552 430.70622474 -0.19603129 431.53182286 -0.19608875 C444.43916068 -0.19724041 457.34647205 -0.20827216 470.25380093 -0.22280681 C483.22220705 -0.23715795 496.19057919 -0.24041662 509.15899107 -0.23236683 C516.86716968 -0.22790408 524.57523874 -0.23179688 532.283403 -0.24760534 C538.03371208 -0.25847648 543.78392265 -0.25373464 549.53422776 -0.24283347 C551.86466592 -0.24086515 554.19511495 -0.24400677 556.52553782 -0.25267783 C559.68570164 -0.26369496 562.84530467 -0.25633547 566.00545239 -0.2442863 C566.91672611 -0.25188149 567.82799983 -0.25947669 568.7668879 -0.26730204 C574.23013651 -0.22212848 578.07943831 0.52628177 582.91648221 3.1276505 C584.0156033 4.87740636 584.0156033 4.87740636 584.31491971 6.90499425 C584.43448026 7.70018468 584.5540408 8.49537511 584.6772244 9.31466222 C585.16959883 15.10357876 585.39890275 20.88300786 585.54148221 26.6901505 C585.59949002 28.63244542 585.59949002 28.63244542 585.65866971 30.61397862 C585.75228115 33.78506626 585.83801624 36.95615805 585.91648221 40.1276505 C586.57648221 39.1376505 587.23648221 38.1476505 587.91648221 37.1276505 C590.23655057 36.69527745 590.23655057 36.69527745 593.25632596 36.61593175 C594.43460965 36.5803214 595.61289334 36.54471105 596.8268826 36.50802159 C598.16923397 36.484515 599.5116017 36.46192927 600.85398221 36.4401505 C602.28034147 36.40747231 603.70669214 36.37441771 605.13303494 36.34102941 C636.48677552 35.6840927 667.94451728 35.57661868 699.29148221 36.5651505 C700.54775418 36.60430577 701.80402616 36.64346105 703.09836698 36.68380284 C707.84530636 36.86151943 712.26132312 37.18791661 716.91648221 38.1276505 C721.32490011 38.56530109 725.7465258 38.83115333 730.16648221 39.1276505 C732.09004544 39.26336461 732.09004544 39.26336461 734.05246854 39.40182042 C740.38126529 39.83122852 746.69370514 40.1796011 753.03757596 40.30343175 C754.14649198 40.32856847 755.25540799 40.35370519 756.39792752 40.37960362 C758.47120567 40.41875783 760.54498673 40.43832153 762.61863065 40.43429112 C770.86063839 40.59683327 778.09973789 43.00269935 784.04148221 48.9401505 C787.64995012 54.58708624 786.26218245 62.72835488 785.91648221 69.1276505 C785.25648221 69.1276505 784.59648221 69.1276505 783.91648221 69.1276505 C783.58648221 70.7776505 783.25648221 72.4276505 782.91648221 74.1276505 C781.92648221 74.1276505 780.93648221 74.1276505 779.91648221 74.1276505 C779.91648221 74.7876505 779.91648221 75.4476505 779.91648221 76.1276505 C773.3488118 79.08954108 767.54482783 80.24276672 760.34226346 80.81124425 C758.85461999 80.93543444 757.36699021 81.0597887 755.87937284 81.18429112 C753.56061654 81.37509806 751.2417458 81.56412774 748.92258573 81.74996495 C738.88225284 82.46623148 738.88225284 82.46623148 728.97898221 84.16280675 C721.34048959 85.86196014 713.39543728 85.79724896 705.60398221 86.1276505 C702.37828983 86.26533838 699.15322788 86.41274993 695.92820096 86.5651505 C695.21733838 86.59230138 694.5064758 86.61945226 693.77407193 86.64742589 C689.46660069 86.85098592 685.35207384 87.38814569 681.10617948 88.14840245 C672.05451489 89.59265629 663.00993745 89.39616952 653.86960721 89.35811925 C651.962442 89.35692477 650.05527619 89.35647485 648.14811063 89.3567307 C644.18121445 89.35517749 640.21441003 89.3469704 636.2475369 89.33346105 C631.15302612 89.31633302 626.05861441 89.31265128 620.96407819 89.31340623 C617.04031286 89.31313525 613.11656935 89.30766791 609.19281125 89.30040479 C607.31244692 89.29721743 605.43208012 89.29525056 603.55171323 89.29451108 C600.94051184 89.2923561 598.32941841 89.28363443 595.71824002 89.27291417 C594.93809537 89.27336736 594.15795072 89.27382054 593.35416532 89.27428746 C588.03097079 89.24213908 588.03097079 89.24213908 586.91648221 88.1276505 C586.87684354 89.07084142 586.83720487 90.01403234 586.79636502 90.9858048 C586.63975286 94.49984417 586.46637301 98.01223294 586.28171659 101.5248673 C586.20536028 103.0424489 586.13561525 104.56037867 586.07273221 106.07857823 C585.98092998 108.26677046 585.86505541 110.45258921 585.74460721 112.63936925 C585.68176541 113.95381017 585.61892362 115.26825109 585.55417752 116.62252355 C584.78066378 120.87418386 584.31434425 122.41138999 580.91648221 125.1276505 C572.28459616 127.44061958 563.38789285 127.41938155 554.51792264 127.4061234 C553.09654002 127.41113946 551.67516023 127.41701956 550.25378436 127.42367828 C546.3723916 127.43938225 542.49107146 127.44290702 538.60965078 127.44432789 C534.39780819 127.44804254 530.18600408 127.46320721 525.97418427 127.47690511 C518.64421496 127.49917162 511.31425947 127.5141629 503.98426366 127.52423787 C493.23260015 127.53901964 482.48098426 127.56490842 471.72934864 127.59311451 C451.80990656 127.64496218 431.89045296 127.68371973 411.97097403 127.71807325 C396.80746782 127.7442903 381.64397216 127.7740047 366.48047757 127.80623937 C364.32004712 127.8108171 362.15961667 127.81539362 359.99918622 127.81996894 C356.76029765 127.8268312 353.52140908 127.8336948 350.28252053 127.84056607 C312.13273189 127.92138691 273.98293212 127.99113237 235.83310924 128.0535289 C207.15279556 128.10045034 178.47253872 128.15785225 149.79227864 128.23034186 C129.96444979 128.28040502 110.1366274 128.3217146 90.30875325 128.34904981 C88.21901184 128.35195743 86.12927045 128.35487868 84.03952909 128.35781407 C83.02355212 128.35923842 82.00757516 128.36066277 80.96081102 128.36213028 C73.89213955 128.37275507 66.82350871 128.39064941 59.75486112 128.41164708 C51.41330745 128.4363465 43.0718183 128.45121269 34.73022634 128.45158947 C30.6570634 128.45200745 26.58405714 128.45684266 22.51093221 128.47523427 C18.25270181 128.49437957 13.99481869 128.49061553 9.73655057 128.48409581 C8.51879689 128.49331374 7.30104321 128.50253167 6.04638791 128.51202893 C-1.32321522 128.47518316 -6.89643415 128.1775418 -12.44289279 122.869838 C-17.75501409 113.99100669 -16.34148458 100.23134965 -16.08351779 90.1276505 C-17.07351779 90.6226505 -17.07351779 90.6226505 -18.08351779 91.1276505 C-21.07263042 91.22637649 -24.03846825 91.26391318 -27.02785373 91.25704503 C-27.9548508 91.25879735 -28.88184787 91.26054967 -29.83693576 91.26235509 C-32.91394026 91.26677069 -35.99088766 91.26383567 -39.06789279 91.260463 C-41.20300439 91.26113635 -43.33811592 91.26210664 -45.47322726 91.26336217 C-49.95563619 91.26483893 -54.43802523 91.26268611 -58.92043185 91.25802159 C-64.66157635 91.2523381 -70.40267395 91.25559469 -76.14381671 91.26159406 C-80.55676762 91.265212 -84.96970747 91.26405516 -89.38265872 91.26146626 C-91.49892566 91.2607997 -93.61519361 91.26161599 -95.73145938 91.26394582 C-98.69486775 91.266491 -101.65820094 91.26260477 -104.62160373 91.25704503 C-105.49456088 91.25906926 -106.36751803 91.26109349 -107.26692843 91.26317906 C-111.66073676 91.24794168 -115.75300572 90.96748406 -120.08351779 90.1276505 C-122.07912426 90.00986234 -124.07718991 89.92904907 -126.07570529 89.88155675 C-127.19332248 89.84868566 -128.31093966 89.81581456 -129.46242404 89.78194737 C-131.78524654 89.72095706 -134.10816851 89.66363999 -136.43117404 89.61007237 C-137.55136935 89.57591222 -138.67156466 89.54175206 -139.82570529 89.50655675 C-140.83488009 89.4815006 -141.8440549 89.45644444 -142.88381076 89.43062901 C-146.04647344 89.13115821 -148.93288368 88.4048358 -151.99696994 87.59305882 C-155.49973103 86.81176154 -158.99480107 86.71740785 -162.57179904 86.60030675 C-164.18183425 86.52955154 -165.79186002 86.45858125 -167.40187716 86.38741612 C-169.89612561 86.28686329 -172.39044382 86.19035553 -174.88503146 86.09859776 C-199.91979748 85.14590577 -199.91979748 85.14590577 -209.08351779 77.1276505 C-212.75865974 72.12876074 -212.76008561 67.71293615 -212.62648654 61.66280675 C-211.78184922 56.16354935 -209.45835646 52.53968684 -205.08351779 49.1276505 C-202.49577985 48.14850641 -200.8997019 48.07017735 -198.08351779 48.1276505 C-198.08351779 47.4676505 -198.08351779 46.8076505 -198.08351779 46.1276505 C-195.46064997 45.25336123 -193.61502297 44.93155799 -190.90334201 44.75460362 C-190.06592471 44.69784459 -189.22850741 44.64108556 -188.36571383 44.58260655 C-187.46563601 44.52528356 -186.5655582 44.46796056 -185.63820529 44.4089005 C-183.73846488 44.28000645 -181.83872532 44.15109982 -179.93898654 44.02218175 C-176.93890531 43.82349108 -173.93872649 43.62635455 -170.93849826 43.42989659 C-168.04646652 43.23917678 -165.15484235 43.04299941 -162.26320529 42.8464005 C-161.35907901 42.7890775 -160.45495273 42.7317545 -159.52342868 42.67269444 C-155.4743022 42.77726807 -155.4743022 42.77726807 -152.08351779 41.1276505 C-147.87712245 40.57967273 -143.62895494 40.38849673 -139.39601779 40.1276505 C-138.70579532 40.08440648 -138.01557284 40.04116246 -137.30443454 39.99660802 C-103.85261731 37.97086968 -70.15007963 38.07703206 -36.64601779 38.0026505 C-35.96959231 37.99997167 -35.29316684 37.99729283 -34.59624362 37.99453282 C-28.33347671 37.97522286 -22.25256791 37.98287831 -16.08351779 39.1276505 C-16.10672091 38.3026505 -16.12992404 37.4776505 -16.15383029 36.6276505 C-16.55183993 11.15503357 -16.55183993 11.15503357 -10.64601779 4.1901505 C-7.34705836 0.94819253 -4.58275244 0.00327166 0 0 Z " fill="#FFFFFF" transform="translate(212.0835177898407,184.87234950065613)"/>
<path d="M0 0 C3.65501654 3.74639195 4.89425485 6.44025908 5.25 11.6875 C5.10136997 19.07846617 2.27344516 24.6114192 -2.71875 29.984375 C-9.4418069 35.92461021 -20.62393981 44 -30 44 C-30 44.66 -30 45.32 -30 46 C-29.113125 46.2475 -28.22625 46.495 -27.3125 46.75 C-20.62124204 49.27500301 -17.15836771 53.78044512 -14 60 C-11.13624682 68.91545802 -13.05959687 77.77761081 -17 86 C-23.3032663 97.37131039 -31.94385186 105.11254968 -44.25 109.3125 C-55.7910104 112.57004326 -64.84523666 111.03010805 -76 107 C-76.33 108.98 -76.66 110.96 -77 113 C-78.98 113.495 -78.98 113.495 -81 114 C-83.0625 112 -83.0625 112 -85 109 C-84.83282299 101.4242418 -81.90577419 94.77625447 -79.125 87.8125 C-78.88046082 87.19606628 -78.63592163 86.57963257 -78.38397217 85.94451904 C-67.78362756 59.32732589 -52.42888441 35.04162681 -37 11 C-37.67474365 11.27932373 -38.3494873 11.55864746 -39.04467773 11.84643555 C-39.93614502 12.210354 -40.8276123 12.57427246 -41.74609375 12.94921875 C-42.6270874 13.31104248 -43.50808105 13.67286621 -44.41577148 14.0456543 C-47.68645826 15.25350641 -50.52713343 15.77832767 -54 16 C-55 15 -55 15 -55.0625 11.9375 C-55.041875 10.968125 -55.02125 9.99875 -55 9 C-16.94290682 -11.1277566 -16.94290682 -11.1277566 0 0 Z M-27 6 C-26.9285376 6.87180908 -26.8570752 7.74361816 -26.78344727 8.6418457 C-27.0442866 12.68676682 -28.16527226 14.42300353 -30.46484375 17.73046875 C-31.18220703 18.78041016 -31.89957031 19.83035156 -32.63867188 20.91210938 C-33.40430766 22.00435534 -34.17059075 23.09614782 -34.9375 24.1875 C-36.43122076 26.34397025 -37.91690889 28.50576178 -39.40234375 30.66796875 C-40.06741943 31.61953857 -40.73249512 32.5711084 -41.41772461 33.55151367 C-43.13241149 35.98171896 -43.13241149 35.98171896 -44 39 C-29.82079105 37.32985279 -15.36244554 30.55321144 -6 19.6875 C-3.14517228 15.85132526 -2.51922888 13.80771119 -3 9 C-4.8670991 6.69724444 -6.35647741 5.32176129 -9 4 C-15.3417582 3.49313085 -20.92573197 4.20021688 -27 6 Z M-50 48 C-56.2184745 58.63170052 -61.8300142 69.36945643 -66.5625 80.75 C-66.97935059 81.74837891 -67.39620117 82.74675781 -67.82568359 83.77539062 C-70.0050613 89.13306511 -71.7613531 94.34909198 -73 100 C-65.76081091 104.04047763 -58.01043144 104.15324625 -49.99609375 102.30859375 C-38.83789737 98.59954099 -32.03000661 92.00554194 -26 82 C-22.68064295 75.30534168 -20.69722743 68.48765246 -22 61 C-24.21242439 56.57515122 -26.94799616 53.80523343 -31 51 C-35.55832752 49.48055749 -40.07833248 50.03710868 -44.84765625 50.16015625 C-48 50 -48 50 -50 48 Z " fill="#FFFFFF" transform="translate(233,334)"/>
<path d="M0 0 C4.55555556 0.55555556 4.55555556 0.55555556 6 2 C5.64191068 8.31922337 3.96221599 13.10678321 1.1875 18.75 C0.60005005 19.96804321 0.60005005 19.96804321 0.00073242 21.21069336 C-5.21524422 31.78329082 -11.49770478 41.7292529 -17.69775391 51.74169922 C-18.24737793 52.64033691 -18.79700195 53.53897461 -19.36328125 54.46484375 C-20.11992065 55.69448853 -20.11992065 55.69448853 -20.8918457 56.94897461 C-22.15844945 58.90472477 -22.15844945 58.90472477 -22 61 C-0.16931983 58.34644174 -0.16931983 58.34644174 17.17578125 46.50390625 C20.46270254 41.30964358 23.04944284 35.81822443 25.51611328 30.1953125 C27.83065975 25.21130721 30.7958625 20.70615292 33.8125 16.125 C34.7792394 14.60797719 35.74425727 13.08985504 36.70703125 11.5703125 C38.11654982 9.36373623 39.54730954 7.17903568 41 5 C45.875 5.875 45.875 5.875 47 7 C46.75948699 13.78697662 44.67969567 17.9572244 41 23.5625 C40.0019299 25.13629135 39.00454569 26.71051786 38.0078125 28.28515625 C37.50540039 29.06906738 37.00298828 29.85297852 36.48535156 30.66064453 C34.21609875 34.23460581 32.0433148 37.86422628 29.875 41.5 C29.49730469 42.12849854 29.11960937 42.75699707 28.73046875 43.40454102 C26.78032496 46.65505236 26.78032496 46.65505236 25 50 C27.97 50.66 30.94 51.32 34 52 C33.25 56.75 33.25 56.75 31 59 C28.1796875 59.4140625 28.1796875 59.4140625 24.875 59.625 C23.77929688 59.69976562 22.68359375 59.77453125 21.5546875 59.8515625 C20.71164063 59.90054688 19.86859375 59.94953125 19 60 C18.71785645 60.73162354 18.43571289 61.46324707 18.14501953 62.21704102 C17.10523388 64.74423006 15.95604947 67.1133772 14.6796875 69.52734375 C7.59543623 83.15334714 1.82765528 96.92126329 -2.8125 111.56396484 C-3.0703125 112.37172363 -3.328125 113.17948242 -3.59375 114.01171875 C-3.81740234 114.73190186 -4.04105469 115.45208496 -4.27148438 116.1940918 C-5 118 -5 118 -7 120 C-9.5 119.8125 -9.5 119.8125 -12 119 C-14.57161615 115.14257577 -14.12581423 113.28928285 -13.5703125 108.83154297 C-12.55661923 103.79866002 -10.55788045 99.24653306 -8.5 94.5625 C-8.0580127 93.52931641 -7.61602539 92.49613281 -7.16064453 91.43164062 C-3.02004555 81.83854052 1.4165264 72.38837104 6 63 C0.49731871 64.39195921 -4.98450726 65.84315112 -10.45996094 67.33837891 C-12.73871931 67.93194246 -15.01551656 68.43848017 -17.3203125 68.91796875 C-23.65187922 70.48487162 -28.01873723 71.9541601 -31.51977539 77.7409668 C-33.25357649 81.07340592 -34.65284024 84.49631058 -36 88 C-36.30873047 88.76812012 -36.61746094 89.53624023 -36.93554688 90.32763672 C-40.94847837 100.35791386 -44.25629409 110.55346758 -47 121 C-49.3125 121.6875 -49.3125 121.6875 -52 122 C-53.80859375 120.81640625 -53.80859375 120.81640625 -55 119 C-57.01128074 105.96800287 -47.2407851 88.55946217 -42 77 C-42.90492188 77.50660156 -42.90492188 77.50660156 -43.828125 78.0234375 C-46.59892599 79.26930126 -48.12984899 78.79726417 -51 78 C-51.36540354 73.4933563 -51.36540354 73.4933563 -49.83984375 71.43359375 C-47.47976959 69.59464 -45.25415991 69.1710468 -42.375 68.375 C-33.93068507 64.98509473 -31.71769298 58.10025957 -28.11962891 50.30957031 C-26.32680126 46.61132576 -24.19638819 43.13383106 -22.0625 39.625 C-15.09897833 27.98742671 -8.78632386 15.95006719 -2.9375 3.71484375 C-2 2 -2 2 0 0 Z " fill="#FFFFFF" transform="translate(179,20)"/>
<path d="M0 0 C2.6875 0.3125 2.6875 0.3125 5 1 C4.50269348 5.97306516 3.44697666 9.63799813 1 14 C1.845625 13.505 2.69125 13.01 3.5625 12.5 C7.39489604 10.82768173 9.86240181 10.60966055 14 11 C17 13 17 13 18 16 C19.24939051 27.45274636 12.64136274 38.09150541 6 47 C0.10484313 54.03963788 -5.95143551 59.31525685 -15.3125 60.375 C-17.99067049 60.00130179 -19.64228305 59.25677876 -22 58 C-28.17820865 69.71912357 -33.39205265 81.7704455 -38.484375 93.99609375 C-38.91298828 95.01429199 -39.34160156 96.03249023 -39.78320312 97.08154297 C-40.56761703 98.96294021 -41.33345395 100.85224414 -42.07617188 102.75048828 C-42.40681641 103.56630371 -42.73746094 104.38211914 -43.078125 105.22265625 C-43.3555957 105.93301025 -43.63306641 106.64336426 -43.91894531 107.37524414 C-45 109 -45 109 -46.99511719 109.86108398 C-47.65672852 109.90692627 -48.31833984 109.95276855 -49 110 C-49.66 109.34 -50.32 108.68 -51 108 C-50.8289675 100.65415431 -48.03403398 94.40217154 -45.25 87.6875 C-44.60417969 86.09131836 -44.60417969 86.09131836 -43.9453125 84.46289062 C-41.13280419 77.56214045 -38.13531925 70.75979545 -35 64 C-35.9075 63.608125 -36.815 63.21625 -37.75 62.8125 C-41.81015484 60.54818288 -44.2143085 58.40171606 -45.6875 53.8984375 C-46.18413405 51.94638978 -46.59854487 49.97382103 -47 48 C-47.67095703 48.92232422 -47.67095703 48.92232422 -48.35546875 49.86328125 C-54.70099897 58.34653806 -54.70099897 58.34653806 -59 60 C-62.0625 60.4375 -62.0625 60.4375 -65 60 C-67.30275556 58.1329009 -68.67823871 56.64352259 -70 54 C-70.9775537 41.68282337 -65.55547162 30.89426648 -57.94140625 21.4453125 C-55.10583142 18.18830361 -52.6061782 15.4041188 -49 13 C-46.3125 13.375 -46.3125 13.375 -44 14 C-44.52242663 18.32538516 -45.93234223 20.53405985 -48.75 23.8125 C-54.78644046 31.10158284 -61.94391623 39.93156026 -61 50 C-56.70804963 49.51160565 -54.95704781 48.46831974 -52.25 45.125 C-47.90536144 39.46629307 -45.05448942 33.21929903 -42.23339844 26.68994141 C-40.09690731 21.84782001 -38.15567037 18.34914224 -34 15 C-31.6875 15.1875 -31.6875 15.1875 -30 16 C-28.92659504 19.87904002 -28.97101649 21.78665329 -30.87109375 25.328125 C-31.28037109 26.12863281 -31.68964844 26.92914063 -32.11132812 27.75390625 C-32.98811063 29.40416846 -33.86826509 31.05264402 -34.75195312 32.69921875 C-37.57268108 38.2343992 -38.91774863 42.76533777 -38 49 C-36.9363351 52.00120605 -36.9363351 52.00120605 -35 54 C-32.94228147 54.64492312 -32.94228147 54.64492312 -31 55 C-30.4738208 53.9162207 -30.4738208 53.9162207 -29.93701172 52.81054688 C-23.43135173 39.46625175 -16.79960246 26.26459523 -9.3125 13.4375 C-8.7251709 12.42816406 -8.1378418 11.41882813 -7.53271484 10.37890625 C-2.64729552 2.12556258 -2.64729552 2.12556258 0 0 Z M-0.34375 21.54296875 C-9.04659836 29.19901223 -14.13395489 38.62586217 -19 49 C-19 49.66 -19 50.32 -19 51 C-14.68476324 52.16870996 -12.04167555 52.448396 -8.0625 50.25 C0.14296532 44.49345262 5.95016771 34.41342466 9 25 C9.16805034 22.28590798 9.16805034 22.28590798 9 20 C5.07370397 18.61424846 2.97435616 19.01206635 -0.34375 21.54296875 Z " fill="#FFFFFF" transform="translate(628,378)"/>
<path d="M0 0 C0.598125 0.20625 1.19625 0.4125 1.8125 0.625 C2.80766891 3.78073772 2.96498523 5.24857413 1.7043457 8.3605957 C0.8548938 9.81598755 0.8548938 9.81598755 -0.01171875 11.30078125 C-0.62853516 12.37650391 -1.24535156 13.45222656 -1.88085938 14.56054688 C-2.86795898 16.23213867 -2.86795898 16.23213867 -3.875 17.9375 C-5.15127505 20.14103846 -6.42604956 22.34544681 -7.69921875 24.55078125 C-8.3029834 25.59057129 -8.90674805 26.63036133 -9.52880859 27.70166016 C-11.56042832 31.28226284 -13.40302279 34.915998 -15.1875 38.625 C-6.96757972 32.93802002 -0.43532072 26.15270868 4.8125 17.625 C6.2975 18.12 6.2975 18.12 7.8125 18.625 C7.66207699 25.69488149 4.41152774 29.47166383 -0.1875 34.625 C-0.86167969 35.38167969 -1.53585937 36.13835937 -2.23046875 36.91796875 C-6.24016293 41.16137917 -9.81045786 43.96248034 -15 46.625 C-24.39148542 52.51112844 -27.52494114 64.03758465 -31.85498047 73.76269531 C-36.58593151 83.92496539 -43.6114487 94.27504004 -54.14453125 98.9609375 C-57.83914085 100.16186223 -60.29029 100.19072403 -64.1875 99.625 C-67.70289978 97.62709383 -69.88378984 95.53613047 -71.1875 91.625 C-71.84565865 83.85872788 -70.00826956 79.2730421 -65.26953125 73.14453125 C-59.15075708 65.98610696 -52.47227645 60.74014359 -44.0546875 56.53515625 C-32.56155628 50.62051823 -27.63177879 44.76767357 -23.1875 32.625 C-23.5175 32.295 -23.8475 31.965 -24.1875 31.625 C-25.00541016 32.60339844 -25.00541016 32.60339844 -25.83984375 33.6015625 C-37.22625969 46.79812661 -37.22625969 46.79812661 -45.5625 48.1875 C-48.1875 47.625 -48.1875 47.625 -50.0625 46.625 C-52.30603857 42.63648699 -51.70087569 38.54612286 -50.56640625 34.30078125 C-46.21313704 22.28575824 -37.08883574 8.62002377 -26.1875 1.625 C-23.9375 1.9375 -23.9375 1.9375 -22.1875 2.625 C-21.375 4.7734375 -21.375 4.7734375 -21.1875 7.625 C-22.79432774 9.74917758 -24.29213104 11.42142686 -26.1875 13.25 C-32.93215157 20.16157173 -38.33774267 27.27125105 -41.1875 36.625 C-34.09780957 34.31314442 -29.47179362 29.75202298 -24.1875 24.625 C-23.64254883 24.10848877 -23.09759766 23.59197754 -22.53613281 23.05981445 C-18.14221633 18.81070575 -14.50160915 14.26826516 -10.9375 9.3125 C-9.91600314 7.89644998 -8.89013327 6.48354159 -7.859375 5.07421875 C-7.4169043 4.45893311 -6.97443359 3.84364746 -6.51855469 3.2097168 C-4.53537147 0.84859386 -3.16200017 -0.54205717 0 0 Z M-37.1875 59.625 C-47.50086783 64.74587361 -58.13438983 72.57106318 -62.1875 83.625 C-62.69299294 86.38074568 -62.69299294 86.38074568 -62.1875 88.625 C-60.28911118 90.9657136 -60.28911118 90.9657136 -57.0625 90.8125 C-52.57333693 89.92392339 -50.24317352 87.35635499 -47.38671875 83.921875 C-42.51764183 76.62258384 -38.8950581 68.56077637 -35.1875 60.625 C-35.8475 60.295 -36.5075 59.965 -37.1875 59.625 Z " fill="#FFFFFF" transform="translate(382.1875,84.375)"/>
<path d="M0 0 C3.49422137 3.14479923 4.28938456 4.74560398 4.9375 9.375 C3.83750657 19.11779895 -2.39940749 26.84115576 -9.5 33.25 C-16.09789209 38.30877458 -23.40151727 43.15039337 -31.5 45.25 C-33.7109375 44.8046875 -33.7109375 44.8046875 -35.5 44.25 C-36.1875 41.9375 -36.1875 41.9375 -36.5 39.25 C-33.68968591 35.78294842 -29.76648291 34.3438987 -25.8125 32.5 C-16.864977 28.1613521 -9.66356713 23.61802605 -5.5 14.25 C-4.99620971 11.53694223 -4.99620971 11.53694223 -5.5 9.25 C-7.37668319 6.97819646 -7.37668319 6.97819646 -10.375 6.8125 C-21.80290385 7.19343013 -31.78490687 15.1521479 -39.3125 23.0625 C-44.03544202 28.7519976 -47.50542397 36.03947717 -47.14453125 43.578125 C-44.7687545 53.42679954 -38.4434857 62.56704243 -32.9765625 70.9296875 C-29.48816719 76.41145156 -27.38427909 81.6190678 -28.5 88.25 C-30.97982022 96.08800319 -36.39519208 100.75482994 -43.5 104.5 C-52.67890681 108.69607169 -62.61726871 109.9869682 -72.4375 107.0625 C-77.68440982 105.0022455 -81.16446168 102.20878954 -84.375 97.5 C-86.10535201 92.5012053 -86.64481372 88.02397169 -84.5859375 83.03515625 C-81.99795187 78.55209727 -79.22036071 75.56390231 -74.5 73.25 C-71.71386535 72.54695668 -69.41474601 72.3471582 -66.5 72.25 C-64.5 74.25 -64.5 74.25 -64.375 76.5625 C-65.91952331 80.25219458 -68.26067428 81.25808394 -71.6875 83.13671875 C-73.65901407 84.12796297 -73.65901407 84.12796297 -74.5 86.25 C-75.00070321 89.62357334 -75.00070321 89.62357334 -74.5 93.25 C-71.50176534 96.97753498 -69.20882348 98.94681058 -64.37109375 99.48828125 C-56.26488434 99.73550112 -49.36704115 97.75133909 -42.9375 92.6875 C-39.9184386 89.6684386 -39.58783103 87.95264825 -39.0625 83.75 C-39.17136578 77.75149534 -42.44590895 73.23070833 -45.5 68.25 C-46.68383078 66.3090267 -47.86541313 64.3667589 -49.04321289 62.42211914 C-49.83037531 61.12759288 -50.6248214 59.83745936 -51.42749023 58.55249023 C-55.96663786 51.1641241 -57.4333645 44.82528635 -56.5 36.25 C-52.92968423 22.47588406 -42.13653662 11.98964262 -30.31640625 4.7890625 C-21.27441701 -0.15205228 -9.91228553 -4.95614277 0 0 Z " fill="#FFFFFF" transform="translate(577.5,332.75)"/>
<path d="M0 0 C2.68329929 2.15310522 4.08805141 3.70165422 5.18359375 6.98828125 C6.37214903 19.27001914 0.62901226 29.59483749 -6.81640625 38.98828125 C-7.34621094 39.67019531 -7.87601563 40.35210937 -8.421875 41.0546875 C-11.16809394 44.43627843 -13.70061202 47.29975029 -17.81640625 48.98828125 C-20.62890625 48.67578125 -20.62890625 48.67578125 -22.81640625 47.98828125 C-23.56640625 45.80078125 -23.56640625 45.80078125 -23.81640625 42.98828125 C-21.22215306 38.83747614 -17.67505678 35.924211 -13.81640625 32.98828125 C-13.15640625 32.98828125 -12.49640625 32.98828125 -11.81640625 32.98828125 C-11.54828125 32.41980469 -11.28015625 31.85132813 -11.00390625 31.265625 C-9.34901908 28.09194335 -7.29547458 25.23944198 -5.25390625 22.3046875 C-2.24431731 17.45499663 -1.48654173 13.70593285 -1.81640625 7.98828125 C-2.97856015 6.5948296 -2.97856015 6.5948296 -6.19140625 6.92578125 C-12.49994122 7.78655083 -17.01726551 12.09572482 -21.81640625 15.98828125 C-22.48027344 16.51035156 -23.14414062 17.03242187 -23.828125 17.5703125 C-28.35654915 21.26428546 -32.11412546 25.48084425 -35.81640625 29.98828125 C-36.22938965 30.4889209 -36.64237305 30.98956055 -37.06787109 31.50537109 C-51.05872632 48.56382097 -67.29882388 71.58276751 -66.13671875 94.90234375 C-65.46579312 99.27154239 -63.92427028 101.97816993 -60.69140625 104.92578125 C-55.58370185 106.81341114 -51.26424122 106.06809542 -46.328125 103.890625 C-35.38245099 97.7794322 -28.33083803 88.35672617 -21.19921875 78.34375 C-20.78317383 77.76157715 -20.36712891 77.1794043 -19.93847656 76.57958984 C-18.99909541 75.24736914 -18.08781444 73.89539354 -17.18359375 72.5390625 C-16.73242188 72.02730469 -16.28125 71.51554687 -15.81640625 70.98828125 C-14.82640625 70.98828125 -13.83640625 70.98828125 -12.81640625 70.98828125 C-13.30644572 76.0418133 -15.04403717 79.58551304 -17.81640625 83.73828125 C-18.4187207 84.65407959 -18.4187207 84.65407959 -19.03320312 85.58837891 C-27.27591589 97.83993053 -38.29820651 110.18681634 -52.8359375 114.6015625 C-57.70735737 115.5527865 -62.29202372 115.49640876 -67.00390625 113.92578125 C-72.41907049 110.19533477 -76.57302561 105.57819863 -77.81640625 98.98828125 C-80.79079271 73.48189874 -62.37437691 48.10916828 -47.44921875 29.22265625 C-16.50108933 -9.19092933 -16.50108933 -9.19092933 0 0 Z " fill="#FFFFFF" transform="translate(557.81640625,28.01171875)"/>
<path d="M0 0 C1.8125 1.0625 1.8125 1.0625 3 3 C3.72356705 12.27070279 -0.87430784 20.03449547 -6.45703125 27.1171875 C-8.74275412 29.64051846 -11.06453992 32.08261261 -13.47900391 34.48046875 C-15.04704348 36.04699817 -16.57755072 37.64437507 -18.10546875 39.25 C-26.17303535 47.63789463 -34.85590031 55.18188626 -44.51953125 61.69921875 C-49.81223968 65.28333485 -51.95680201 68.95105858 -54 75 C-53.34515625 74.28714844 -52.6903125 73.57429688 -52.015625 72.83984375 C-44.60024383 64.98074859 -34.57271715 55.38100965 -23.1875 54.875 C-22.465625 54.91625 -21.74375 54.9575 -21 55 C-20.505 57.475 -20.505 57.475 -20 60 C-32.63157895 68 -32.63157895 68 -37 68 C-37.13277344 68.71542969 -37.26554687 69.43085938 -37.40234375 70.16796875 C-37.98750665 72.94079949 -38.74957486 75.59882236 -39.5625 78.3125 C-41.2136532 84.28886913 -42.01208974 89.96373079 -40 96 C-34.10329423 96.75277095 -30.9863594 95.29288501 -26.203125 91.84375 C-22.69404242 88.90707096 -19.84993791 85.56419034 -17 82 C-16.02249369 80.83194183 -15.04350802 79.66511877 -14.0625 78.5 C-13.381875 77.675 -12.70125 76.85 -12 76 C-11.01 76.33 -10.02 76.66 -9 77 C-10.44638047 86.50953598 -18.64942387 95.97988913 -26.18359375 101.640625 C-31.44279917 104.99879654 -35.60943685 106.64988778 -42 106 C-46.82003725 102.90790063 -48.61245495 100.47273584 -50 95 C-50.13474123 92.33212358 -50.19197861 89.78353559 -50.125 87.125 C-50.11597656 86.43664062 -50.10695313 85.74828125 -50.09765625 85.0390625 C-50.07432513 83.35922162 -50.03846326 81.67956254 -50 80 C-55.20768468 86.2603018 -59.91230779 92.69312917 -64.3359375 99.53125 C-66 102 -66 102 -68 104 C-70.125 103.625 -70.125 103.625 -72 103 C-73.7292412 98.46883322 -72.29800341 95.47597406 -70.49829102 91.26245117 C-69.91132446 89.95691284 -69.91132446 89.95691284 -69.3125 88.625 C-68.90894287 87.70887939 -68.50538574 86.79275879 -68.08959961 85.84887695 C-60.64840863 69.24778365 -52.14331944 53.11330193 -42 38 C-41.59040039 37.38833984 -41.18080078 36.77667969 -40.75878906 36.14648438 C-33.00500947 24.68227005 -24.12562796 13.10906407 -12.9375 4.8125 C-11.96103516 4.07966797 -11.96103516 4.07966797 -10.96484375 3.33203125 C-7.27518957 0.83069511 -4.53649215 -0.58160156 0 0 Z M-18 17 C-28.1316634 27.29153185 -35.60344703 39.68584778 -43 52 C-35.556905 52 -27.91956781 42.16145693 -22.8125 37.125 C-10.84389206 25.31121897 -10.84389206 25.31121897 -6 10 C-11.82033355 10 -13.99174463 13.05036628 -18 17 Z " fill="#FFFFFF" transform="translate(341,334)"/>
<path d="M0 0 C2.4375 1.5625 2.4375 1.5625 4 4 C4.54506921 8.90562293 3.5349275 12.3952175 2 17 C2.22945313 17.58265625 2.45890625 18.1653125 2.6953125 18.765625 C3.18767963 22.37631731 0.92413299 24.72666362 -1.0625 27.5625 C-1.89890117 28.80392816 -2.73220642 30.04744743 -3.5625 31.29296875 C-4.18318359 32.22181885 -4.18318359 32.22181885 -4.81640625 33.16943359 C-7.48091647 37.29041082 -9.73627427 41.65009565 -12 46 C-2.86695386 39.56800367 3.44395811 31.81735364 9.59765625 22.609375 C10.06042969 22.07828125 10.52320313 21.5471875 11 21 C11.99 21 12.98 21 14 21 C14 28.56824567 9.57442523 33.29818983 5 39 C4.23171875 39.98355469 3.4634375 40.96710938 2.671875 41.98046875 C-0.18352183 45.38181481 -3.4944888 48.04596252 -7 50.75 C-7.60328125 51.23082031 -8.2065625 51.71164062 -8.828125 52.20703125 C-11.49471409 54.28813012 -13.58121057 55.85807692 -16.8125 56.953125 C-19.25227271 57.81711544 -19.25227271 57.81711544 -19.9921875 60.484375 C-20.32476562 61.64453125 -20.65734375 62.8046875 -21 64 C-27.60489975 78.46553068 -35.08938998 94.54469499 -50 102 C-54.18144011 102.39447548 -56.30946048 102.45035186 -59.875 100.125 C-62.66380178 97.33619822 -62.94795468 96.4857563 -63.375 92.5 C-63.29066219 85.88550568 -59.90997709 80.21970311 -55.6875 75.3125 C-54.800625 74.549375 -53.91375 73.78625 -53 73 C-52.45480713 72.48252197 -51.90961426 71.96504395 -51.34790039 71.43188477 C-45.52697093 66.02928014 -39.21004698 62.73149449 -32.0703125 59.359375 C-26.295913 56.41111664 -23.75250196 53.9203254 -21.53222656 47.77099609 C-21.3565918 47.18656738 -21.18095703 46.60213867 -21 46 C-21.58007812 46.433125 -22.16015625 46.86625 -22.7578125 47.3125 C-29.05951941 51.80480591 -29.05951941 51.80480591 -33.3125 52.6875 C-36 52 -36 52 -38.375 50 C-40.47363285 46.12560089 -40.80128071 43.24538198 -40 39 C-35.31810596 24.16709675 -25.70782071 9.35439704 -11.75 1.8125 C-7.70813103 0.05460778 -4.43123594 -0.79762247 0 0 Z M-17.375 15.9375 C-23.54352048 22.27088071 -30.78436515 32.28567657 -31.125 41.3125 C-31.063125 42.6428125 -31.063125 42.6428125 -31 44 C-30.01 44.33 -29.02 44.66 -28 45 C-21.86198744 41.79149343 -16.67721967 36.51417454 -13.6875 30.25 C-13.460625 29.5075 -13.23375 28.765 -13 28 C-11.09871252 23.71296236 -8.21262822 20.22960012 -5.36328125 16.53515625 C-3.72684925 14.06152185 -3.72684925 14.06152185 -4.29296875 11.18359375 C-4.52628906 10.46300781 -4.75960937 9.74242187 -5 9 C-10.13343537 9 -13.72839607 12.59061694 -17.375 15.9375 Z M-47.30859375 76.16796875 C-50.54536508 79.76670161 -53.39519392 83.38618251 -55 88 C-54.78892707 91.27885532 -54.78892707 91.27885532 -54 94 C-50.80721442 94.07981964 -48.67658599 93.5450276 -46.171875 91.52734375 C-40.79914246 85.85976614 -30 73.24374619 -30 65 C-35.63593891 65 -43.30128351 72.40475862 -47.30859375 76.16796875 Z " fill="#FFFFFF" transform="translate(435,383)"/>
<path d="M0 0 C1.90747743 1.99195778 2.89868213 3.34019827 3.3203125 6.0859375 C1.07461642 32.40549553 -26.54178569 56.90948071 -44.18164062 74.21337891 C-44.78169922 74.80296387 -45.38175781 75.39254883 -46 76 C-46.55018799 76.51554443 -47.10037598 77.03108887 -47.66723633 77.56225586 C-49.68209021 79.73581777 -50.28460558 82.13887324 -51.1875 84.9375 C-51.53167969 85.97777344 -51.87585938 87.01804687 -52.23046875 88.08984375 C-53.17042858 91.14281741 -53.17042858 91.14281741 -53 95 C-48.78519037 94.53168782 -46.58656423 92.11059542 -44 89 C-41.26602343 85.38015393 -38.61565167 81.7060474 -36 78 C-34.68 78.33 -33.36 78.66 -32 79 C-32.57112061 83.20344771 -33.99597906 85.96817364 -36.3125 89.5 C-37.20388672 90.87671875 -37.20388672 90.87671875 -38.11328125 92.28125 C-42.76831825 98.9891294 -47.94008498 105.04529905 -56.3125 106.625 C-59.82857651 105.80730779 -61.0230279 105.04149553 -63 102 C-63.35930102 96.36496238 -62.70710643 91.66842555 -60.875 86.3125 C-60.49553223 85.19210327 -60.49553223 85.19210327 -60.10839844 84.04907227 C-53.4142116 65.35094077 -43.83459061 46.62713675 -33 30 C-32.53384277 29.28424805 -32.06768555 28.56849609 -31.58740234 27.83105469 C-12.18980511 -1.55614533 -12.18980511 -1.55614533 0 0 Z M-14.90429688 14.85546875 C-18.37203046 18.40399762 -21.05608101 22.34787227 -23.75 26.5 C-24.33982666 27.3969458 -24.92965332 28.2938916 -25.53735352 29.21801758 C-30.02847048 36.18558412 -34.07842245 43.35317167 -37.9375 50.6875 C-38.72688965 52.18410156 -38.72688965 52.18410156 -39.53222656 53.7109375 C-41.39980036 57.2958554 -41.39980036 57.2958554 -43 61 C-42.67 61.66 -42.34 62.32 -42 63 C-35.37376104 57.70984192 -30.19303114 51.67548618 -25 45 C-24.25621094 44.071875 -23.51242187 43.14375 -22.74609375 42.1875 C-18.37051502 36.58675922 -14.54518899 30.84107743 -11 24.6875 C-10.61392578 24.02983643 -10.22785156 23.37217285 -9.83007812 22.69458008 C-7.43591429 18.41008752 -6.40539379 14.89639685 -6 10 C-10.28838271 10 -11.82215991 12.04636127 -14.90429688 14.85546875 Z " fill="#FFFFFF" transform="translate(756,332)"/>
<path d="M0 0 C2.6875 0.3125 2.6875 0.3125 5 1 C4.50269348 5.97306516 3.44697666 9.63799813 1 14 C1.845625 13.505 2.69125 13.01 3.5625 12.5 C7.39489604 10.82768173 9.86240181 10.60966055 14 11 C17 13 17 13 18 16 C19.24939051 27.45274636 12.64136274 38.09150541 6 47 C0.10484313 54.03963788 -5.95143551 59.31525685 -15.3125 60.375 C-17.99067049 60.00130179 -19.64228305 59.25677876 -22 58 C-28.17820865 69.71912357 -33.39205265 81.7704455 -38.484375 93.99609375 C-38.91298828 95.01429199 -39.34160156 96.03249023 -39.78320312 97.08154297 C-40.56761703 98.96294021 -41.33345395 100.85224414 -42.07617188 102.75048828 C-42.40681641 103.56630371 -42.73746094 104.38211914 -43.078125 105.22265625 C-43.49433105 106.28818726 -43.49433105 106.28818726 -43.91894531 107.37524414 C-45 109 -45 109 -46.99511719 109.86108398 C-47.65672852 109.90692627 -48.31833984 109.95276855 -49 110 C-49.66 109.34 -50.32 108.68 -51 108 C-50.77708792 101.02603627 -48.3818035 95.14651933 -45.75 88.75 C-45.31107422 87.66952393 -44.87214844 86.58904785 -44.41992188 85.47583008 C-39.05405502 72.4483039 -33.08609638 59.70353407 -27 47 C-26.56187988 46.07848145 -26.12375977 45.15696289 -25.67236328 44.20751953 C-20.73367474 33.86193676 -15.31335241 23.85515536 -9.5625 13.9375 C-8.95865479 12.8949707 -8.35480957 11.85244141 -7.73266602 10.77832031 C-7.16217529 9.80862305 -6.59168457 8.83892578 -6.00390625 7.83984375 C-5.24315796 6.54614868 -5.24315796 6.54614868 -4.46704102 5.22631836 C-3.1104329 3.16758823 -1.92822252 1.53450003 0 0 Z M-0.34375 21.54296875 C-9.04659836 29.19901223 -14.13395489 38.62586217 -19 49 C-19 49.66 -19 50.32 -19 51 C-14.68476324 52.16870996 -12.04167555 52.448396 -8.0625 50.25 C0.14296532 44.49345262 5.95016771 34.41342466 9 25 C9.16805034 22.28590798 9.16805034 22.28590798 9 20 C5.07370397 18.61424846 2.97435616 19.01206635 -0.34375 21.54296875 Z " fill="#FFFFFF" transform="translate(673,378)"/>
<path d="M0 0 C2.125 0.375 2.125 0.375 4 1 C3.41734728 5.42323682 1.73233789 8.5155864 -0.5625 12.3125 C-1.52349609 13.91544922 -1.52349609 13.91544922 -2.50390625 15.55078125 C-2.99761719 16.35902344 -3.49132812 17.16726562 -4 18 C-2.82244141 16.98679687 -2.82244141 16.98679687 -1.62109375 15.953125 C9.65375569 6.33898188 9.65375569 6.33898188 15 4 C17.4375 4.25 17.4375 4.25 19 5 C19.68359375 6.703125 19.68359375 6.703125 20 9 C18.78515625 11.359375 18.78515625 11.359375 17.0625 13.75 C16.49660156 14.54921875 15.93070313 15.3484375 15.34765625 16.171875 C14.90292969 16.77515625 14.45820312 17.3784375 14 18 C14.76183594 17.26394531 15.52367187 16.52789062 16.30859375 15.76953125 C28.84433069 3.84315626 28.84433069 3.84315626 35 2 C37.75390625 2.390625 37.75390625 2.390625 40 3 C40.68359375 4.74609375 40.68359375 4.74609375 41 7 C39.84765625 8.97265625 39.84765625 8.97265625 38.0625 11.0625 C37.09763672 12.23619141 37.09763672 12.23619141 36.11328125 13.43359375 C35.41589844 14.28050781 34.71851563 15.12742187 34 16 C25.1160654 27.25808076 25.1160654 27.25808076 22.69140625 40.99609375 C23.09375202 43.60879477 24.34687237 44.9874968 26 47 C25.6875 49.75 25.6875 49.75 25 52 C22.525 52.495 22.525 52.495 20 53 C15.49369649 47.80041902 13.65740772 44.53409593 13.703125 37.55078125 C14.22915527 33.03107382 16.15086812 29.11413277 18 25 C18.495 23.515 18.495 23.515 19 22 C11.65173127 28.89837473 5.49525933 36.06127764 0.875 45.0625 C-1 48 -1 48 -3.6875 49 C-4.450625 49 -5.21375 49 -6 49 C-6.495 48.505 -6.495 48.505 -7 48 C-6.65305211 41.44489945 -4.71679132 36.39459368 -1.9375 30.5 C-1.56044922 29.67757812 -1.18339844 28.85515625 -0.79492188 28.0078125 C0.1270486 26.00048438 1.05872543 23.99832944 2 22 C-6.5362047 29.73801413 -12.0904977 38.62307529 -16.95703125 49.00390625 C-18 51 -18 51 -20 53 C-21.32 53 -22.64 53 -24 53 C-25.14814339 47.57241306 -24.74178849 43.80974424 -22.6875 38.75 C-22.42187256 38.07251709 -22.15624512 37.39503418 -21.88256836 36.69702148 C-16.55991675 23.59019616 -10.09172215 10.09172215 0 0 Z " fill="#FFFFFF" transform="translate(667,84)"/>
<path d="M0 0 C2.84501402 3.79335202 2.86707051 6.57818203 2.6953125 11.25 C1.70659233 16.71847697 -0.65218851 21.31604765 -3.2109375 26.20703125 C-5.98124276 31.89179792 -7.76034647 37.4023272 -6.9375 43.75 C-4.62493506 46.47926391 -4.62493506 46.47926391 -1.9375 48.75 C-0.625 51.0625 -0.625 51.0625 0.0625 52.75 C-0.5975 53.74 -1.2575 54.73 -1.9375 55.75 C-5.72269104 56.33880749 -7.43586792 56.06922042 -10.6875 54 C-14.78274596 49.90475404 -15.27744804 46.47045035 -15.9375 40.75 C-16.60845703 41.67232422 -16.60845703 41.67232422 -17.29296875 42.61328125 C-23.78928784 51.29812574 -23.78928784 51.29812574 -27.9375 52.75 C-31.47743611 52.62793324 -33.9206675 52.49567717 -36.8125 50.375 C-39.66155425 46.25969941 -39.43139164 41.53369331 -38.9375 36.75 C-35.6914841 22.553569 -27.81890671 9.61011329 -15.765625 1.2421875 C-10.44265607 -1.70814024 -5.74972573 -2.4466918 0 0 Z M-19.95703125 14.18359375 C-26.30746374 22.67832812 -31.03866932 29.86418129 -30.9375 40.75 C-30.6075 41.41 -30.2775 42.07 -29.9375 42.75 C-27.03137202 42.68080648 -24.77773189 42.47854817 -22.51953125 40.52050781 C-18.0527981 35.29993525 -14.80406124 29.60140853 -11.5625 23.5625 C-10.74458984 22.08620117 -10.74458984 22.08620117 -9.91015625 20.58007812 C-9.39582031 19.63197266 -8.88148438 18.68386719 -8.3515625 17.70703125 C-7.8870166 16.85085205 -7.4224707 15.99467285 -6.94384766 15.11254883 C-5.67624173 12.56464972 -5.67624173 12.56464972 -5.9375 8.75 C-6.96458333 7.52291667 -6.96458333 7.52291667 -9.125 7.4375 C-14.21655052 8.00322784 -16.79589949 10.37433826 -19.95703125 14.18359375 Z " fill="#FFFFFF" transform="translate(263.9375,385.25)"/>
<path d="M0 0 C0.495 0.495 0.495 0.495 1 1 C0.69826129 6.45097538 -0.4266373 9.10713243 -4.125 13.0625 C-11.60259495 21.68681878 -17.31161279 31.91477553 -17.234375 43.5390625 C-16.84883204 47.58726359 -15.49341469 51.23979514 -14 55 C-16 57 -16 57 -18.875 57.125 C-22.23360504 55.91590218 -22.68696934 55.5669963 -24.375 52.625 C-27.88531243 44.35069212 -26.34372729 36.5435379 -23.08984375 28.4609375 C-21.81444867 25.58101312 -20.49778332 22.77089914 -19 20 C-27.33211477 26.44774004 -33.52459179 34.57989197 -38.75 43.6875 C-40.35020963 46.35082468 -40.70440726 46.87626351 -43.6875 48.125 C-46 48 -46 48 -48 46 C-47.88650441 38.84167119 -45.13693649 33.45106346 -41.875 27.1875 C-41.37798584 26.21570801 -40.88097168 25.24391602 -40.36889648 24.24267578 C-31.12861069 6.37942181 -31.12861069 6.37942181 -25 1 C-22.75 1.25 -22.75 1.25 -21 2 C-20.03252229 5.112514 -19.74297336 6.48016155 -21.21484375 9.45703125 C-21.78332031 10.23433594 -22.35179687 11.01164062 -22.9375 11.8125 C-23.50339844 12.60269531 -24.06929688 13.39289063 -24.65234375 14.20703125 C-25.09707031 14.79871094 -25.54179687 15.39039063 -26 16 C-25.32517578 15.38125 -25.32517578 15.38125 -24.63671875 14.75 C-7.76410395 -0.39815918 -7.76410395 -0.39815918 0 0 Z " fill="#FFFFFF" transform="translate(397,390)"/>
<path d="M0 0 C0.495 0.495 0.495 0.495 1 1 C0.69826129 6.45097538 -0.4266373 9.10713243 -4.125 13.0625 C-11.60259495 21.68681878 -17.31161279 31.91477553 -17.234375 43.5390625 C-16.84883204 47.58726359 -15.49341469 51.23979514 -14 55 C-16 57 -16 57 -18.875 57.125 C-22.23360504 55.91590218 -22.68696934 55.5669963 -24.375 52.625 C-27.88531243 44.35069212 -26.34372729 36.5435379 -23.08984375 28.4609375 C-21.81444867 25.58101312 -20.49778332 22.77089914 -19 20 C-27.33211477 26.44774004 -33.52459179 34.57989197 -38.75 43.6875 C-40.35020963 46.35082468 -40.70440726 46.87626351 -43.6875 48.125 C-46 48 -46 48 -48 46 C-47.88650441 38.84167119 -45.13693649 33.45106346 -41.875 27.1875 C-41.37798584 26.21570801 -40.88097168 25.24391602 -40.36889648 24.24267578 C-31.12861069 6.37942181 -31.12861069 6.37942181 -25 1 C-22.75 1.25 -22.75 1.25 -21 2 C-20.03252229 5.112514 -19.74297336 6.48016155 -21.21484375 9.45703125 C-21.78332031 10.23433594 -22.35179687 11.01164062 -22.9375 11.8125 C-23.50339844 12.60269531 -24.06929688 13.39289063 -24.65234375 14.20703125 C-25.09707031 14.79871094 -25.54179687 15.39039062 -26 16 C-25.32517578 15.38125 -25.32517578 15.38125 -24.63671875 14.75 C-7.76410395 -0.39815918 -7.76410395 -0.39815918 0 0 Z " fill="#FFFFFF" transform="translate(333,86)"/>
<path d="M0 0 C0.495 0.495 0.495 0.495 1 1 C0.69826129 6.45097538 -0.4266373 9.10713243 -4.125 13.0625 C-11.60259495 21.68681878 -17.31161279 31.91477553 -17.234375 43.5390625 C-16.84883204 47.58726359 -15.49341469 51.23979514 -14 55 C-16 57 -16 57 -18.875 57.125 C-22.23360504 55.91590218 -22.68696934 55.5669963 -24.375 52.625 C-27.88531243 44.35069212 -26.34372729 36.5435379 -23.08984375 28.4609375 C-21.81444867 25.58101312 -20.49778332 22.77089914 -19 20 C-27.33211477 26.44774004 -33.52459179 34.57989197 -38.75 43.6875 C-40.35020963 46.35082468 -40.70440726 46.87626351 -43.6875 48.125 C-46 48 -46 48 -48 46 C-47.88650441 38.84167119 -45.13693649 33.45106346 -41.875 27.1875 C-41.37798584 26.21570801 -40.88097168 25.24391602 -40.36889648 24.24267578 C-31.12861069 6.37942181 -31.12861069 6.37942181 -25 1 C-22.75 1.25 -22.75 1.25 -21 2 C-20.03252229 5.112514 -19.74297336 6.48016155 -21.21484375 9.45703125 C-21.78332031 10.23433594 -22.35179687 11.01164062 -22.9375 11.8125 C-23.50339844 12.60269531 -24.06929688 13.39289063 -24.65234375 14.20703125 C-25.09707031 14.79871094 -25.54179687 15.39039062 -26 16 C-25.32517578 15.38125 -25.32517578 15.38125 -24.63671875 14.75 C-7.76410395 -0.39815918 -7.76410395 -0.39815918 0 0 Z " fill="#FFFFFF" transform="translate(289,86)"/>
<path d="M0 0 C2.91120343 2.3477447 2.91120343 2.3477447 3.3125 5.625 C2.82817588 10.71040326 1.34194571 13.77713729 -2.0625 17.5625 C-7.68747357 21.96891063 -13.02932141 23.22758673 -20.0625 23.5625 C-20.5575 21.0875 -20.5575 21.0875 -21.0625 18.5625 C-20.21945312 18.22476562 -19.37640625 17.88703125 -18.5078125 17.5390625 C-17.41210938 17.09304688 -16.31640625 16.64703125 -15.1875 16.1875 C-14.09695313 15.74664062 -13.00640625 15.30578125 -11.8828125 14.8515625 C-8.99920638 13.73198662 -8.99920638 13.73198662 -7.0625 11.5625 C-6.89562552 8.97895782 -6.89562552 8.97895782 -7.0625 6.5625 C-14.59472548 6.89726558 -18.91408442 8.49693746 -24.4375 13.875 C-26.64643093 17.52823192 -26.68757873 19.32585528 -26.0625 23.5625 C-24.15904482 28.13951055 -21.73387243 32.40496132 -19.25 36.6875 C-17.69354703 40.45575455 -17.35541077 43.54494757 -18.0625 47.5625 C-20.51208146 52.65762944 -23.78932156 55.66928989 -29.0625 57.5625 C-34.354009 58.47341741 -38.58137965 57.51596569 -43.0625 54.5625 C-47.42940106 49.84152589 -48.35016754 46.16086656 -48.2890625 39.91796875 C-47.85829671 35.4394899 -46.27349073 31.77349073 -43.0625 28.5625 C-40.4375 28.4375 -40.4375 28.4375 -38.0625 28.5625 C-38.3925 29.5525 -38.7225 30.5425 -39.0625 31.5625 C-40.23524941 35.79124606 -40.55830464 39.17108744 -40.0625 43.5625 C-38.1860883 46.77263047 -38.1860883 46.77263047 -35.0625 48.5625 C-31.34942396 48.66385489 -31.34942396 48.66385489 -28.0625 47.5625 C-26.61680975 44.67111949 -26.76262037 42.79370301 -27.0625 39.5625 C-28.46670196 36.1011058 -30.37095999 32.9000313 -32.21875 29.66015625 C-34.91456372 24.66327296 -35.62531895 21.24993356 -35.0625 15.5625 C-32.50385703 7.9251436 -25.86066286 4.03626101 -19.0546875 0.52734375 C-12.93256871 -2.13714115 -6.12575139 -2.8753527 0 0 Z " fill="#FFFFFF" transform="translate(844.0625,383.4375)"/>
<path d="M0 0 C2.91120343 2.3477447 2.91120343 2.3477447 3.3125 5.625 C2.82817588 10.71040326 1.34194571 13.77713729 -2.0625 17.5625 C-7.68747357 21.96891063 -13.02932141 23.22758673 -20.0625 23.5625 C-20.5575 21.0875 -20.5575 21.0875 -21.0625 18.5625 C-20.21945312 18.22476563 -19.37640625 17.88703125 -18.5078125 17.5390625 C-17.41210938 17.09304687 -16.31640625 16.64703125 -15.1875 16.1875 C-14.09695313 15.74664062 -13.00640625 15.30578125 -11.8828125 14.8515625 C-8.99920638 13.73198662 -8.99920638 13.73198662 -7.0625 11.5625 C-6.89562552 8.97895782 -6.89562552 8.97895782 -7.0625 6.5625 C-14.59472548 6.89726558 -18.91408442 8.49693746 -24.4375 13.875 C-26.64643093 17.52823192 -26.68757873 19.32585528 -26.0625 23.5625 C-24.15904482 28.13951055 -21.73387243 32.40496132 -19.25 36.6875 C-17.69354703 40.45575455 -17.35541077 43.54494757 -18.0625 47.5625 C-20.51208146 52.65762944 -23.78932156 55.66928989 -29.0625 57.5625 C-34.354009 58.47341741 -38.58137965 57.51596569 -43.0625 54.5625 C-47.42940106 49.84152589 -48.35016754 46.16086656 -48.2890625 39.91796875 C-47.85829671 35.4394899 -46.27349073 31.77349073 -43.0625 28.5625 C-40.4375 28.4375 -40.4375 28.4375 -38.0625 28.5625 C-38.3925 29.5525 -38.7225 30.5425 -39.0625 31.5625 C-40.23524941 35.79124606 -40.55830464 39.17108744 -40.0625 43.5625 C-38.1860883 46.77263047 -38.1860883 46.77263047 -35.0625 48.5625 C-31.34942396 48.66385489 -31.34942396 48.66385489 -28.0625 47.5625 C-26.61680975 44.67111949 -26.76262037 42.79370301 -27.0625 39.5625 C-28.46670196 36.1011058 -30.37095999 32.9000313 -32.21875 29.66015625 C-34.91456372 24.66327296 -35.62531895 21.24993356 -35.0625 15.5625 C-32.50385703 7.9251436 -25.86066286 4.03626101 -19.0546875 0.52734375 C-12.93256871 -2.13714115 -6.12575139 -2.8753527 0 0 Z " fill="#FFFFFF" transform="translate(435.0625,79.4375)"/>
<path d="M0 0 C1.79990743 2.37587781 1.88031 3.14666994 1.8125 6.0625 C0.42502655 14.4972396 -5.66928442 21.10692316 -12.375 26 C-23.35922476 33.0625 -23.35922476 33.0625 -28.4375 33.0625 C-27.83566251 35.08295442 -27.16443904 37.08361039 -26.4375 39.0625 C-22.68434454 40.93907773 -18.4326562 40.65306624 -14.484375 39.484375 C-6.1736502 35.76819724 0.31461823 28.51864449 6.5625 22.0625 C7.5525 22.3925 8.5425 22.7225 9.5625 23.0625 C8.53438814 30.66789156 2.30031134 35.88693052 -3.41015625 40.61328125 C-11.16362529 46.15574178 -18.73174434 50.09104829 -28.4375 49.0625 C-31.92228389 47.81323785 -33.86914611 46.70663441 -36.3125 43.9375 C-39.04091927 36.96487298 -37.45401509 30.5433972 -34.765625 23.765625 C-32.58660337 19.3306751 -29.72601955 15.72566101 -26.4375 12.0625 C-25.86773438 11.423125 -25.29796875 10.78375 -24.7109375 10.125 C-18.39403674 3.43312339 -9.65079351 -3.71184366 0 0 Z M-19.4375 15.0625 C-23.69917898 20.04163085 -23.69917898 20.04163085 -25.4375 26.0625 C-17.48767346 25.12722629 -13.11309052 19.89872634 -7.9765625 14.28125 C-6.05752535 11.96476758 -6.05752535 11.96476758 -6.4375 8.0625 C-12.32230954 8.0625 -15.27551075 11.10896963 -19.4375 15.0625 Z " fill="#FFFFFF" transform="translate(787.4375,387.9375)"/>
<path d="M0 0 C1.79990743 2.37587781 1.88031 3.14666994 1.8125 6.0625 C0.42502655 14.4972396 -5.66928442 21.10692316 -12.375 26 C-23.35922476 33.0625 -23.35922476 33.0625 -28.4375 33.0625 C-27.83566251 35.08295442 -27.16443904 37.08361039 -26.4375 39.0625 C-22.68434454 40.93907773 -18.4326562 40.65306624 -14.484375 39.484375 C-6.1736502 35.76819724 0.31461823 28.51864449 6.5625 22.0625 C7.5525 22.3925 8.5425 22.7225 9.5625 23.0625 C8.53438814 30.66789156 2.30031134 35.88693052 -3.41015625 40.61328125 C-11.16362529 46.15574178 -18.73174434 50.09104829 -28.4375 49.0625 C-31.92228389 47.81323785 -33.86914611 46.70663441 -36.3125 43.9375 C-39.04091927 36.96487298 -37.45401509 30.5433972 -34.765625 23.765625 C-32.58660337 19.3306751 -29.72601955 15.72566101 -26.4375 12.0625 C-25.86773438 11.423125 -25.29796875 10.78375 -24.7109375 10.125 C-18.39403674 3.43312339 -9.65079351 -3.71184366 0 0 Z M-19.4375 15.0625 C-23.69917898 20.04163085 -23.69917898 20.04163085 -25.4375 26.0625 C-17.48767346 25.12722629 -13.11309052 19.89872634 -7.9765625 14.28125 C-6.05752535 11.96476758 -6.05752535 11.96476758 -6.4375 8.0625 C-12.32230954 8.0625 -15.27551075 11.10896963 -19.4375 15.0625 Z " fill="#FFFFFF" transform="translate(863.4375,83.9375)"/>
<path d="M0 0 C1.79990743 2.37587781 1.88031 3.14666994 1.8125 6.0625 C0.42502655 14.4972396 -5.66928442 21.10692316 -12.375 26 C-23.35922476 33.0625 -23.35922476 33.0625 -28.4375 33.0625 C-27.83566251 35.08295442 -27.16443904 37.08361039 -26.4375 39.0625 C-22.68434454 40.93907773 -18.4326562 40.65306624 -14.484375 39.484375 C-6.1736502 35.76819724 0.31461823 28.51864449 6.5625 22.0625 C7.5525 22.3925 8.5425 22.7225 9.5625 23.0625 C8.53438814 30.66789156 2.30031134 35.88693052 -3.41015625 40.61328125 C-11.16362529 46.15574178 -18.73174434 50.09104829 -28.4375 49.0625 C-31.92228389 47.81323785 -33.86914611 46.70663441 -36.3125 43.9375 C-39.04091927 36.96487298 -37.45401509 30.5433972 -34.765625 23.765625 C-32.58660337 19.3306751 -29.72601955 15.72566101 -26.4375 12.0625 C-25.86773438 11.423125 -25.29796875 10.78375 -24.7109375 10.125 C-18.39403674 3.43312339 -9.65079351 -3.71184366 0 0 Z M-19.4375 15.0625 C-23.69917898 20.04163085 -23.69917898 20.04163085 -25.4375 26.0625 C-17.48767346 25.12722629 -13.11309052 19.89872634 -7.9765625 14.28125 C-6.05752535 11.96476758 -6.05752535 11.96476758 -6.4375 8.0625 C-12.32230954 8.0625 -15.27551075 11.10896963 -19.4375 15.0625 Z " fill="#FFFFFF" transform="translate(742.4375,83.9375)"/>
<path d="M0 0 C1.79990743 2.37587781 1.88031 3.14666994 1.8125 6.0625 C0.42502655 14.4972396 -5.66928442 21.10692316 -12.375 26 C-23.35922476 33.0625 -23.35922476 33.0625 -28.4375 33.0625 C-27.83566251 35.08295442 -27.16443904 37.08361039 -26.4375 39.0625 C-22.68434454 40.93907773 -18.4326562 40.65306624 -14.484375 39.484375 C-6.1736502 35.76819724 0.31461823 28.51864449 6.5625 22.0625 C7.5525 22.3925 8.5425 22.7225 9.5625 23.0625 C8.53438814 30.66789156 2.30031134 35.88693052 -3.41015625 40.61328125 C-11.16362529 46.15574178 -18.73174434 50.09104829 -28.4375 49.0625 C-31.92228389 47.81323785 -33.86914611 46.70663441 -36.3125 43.9375 C-39.04091927 36.96487298 -37.45401509 30.5433972 -34.765625 23.765625 C-32.58660337 19.3306751 -29.72601955 15.72566101 -26.4375 12.0625 C-25.86773438 11.423125 -25.29796875 10.78375 -24.7109375 10.125 C-18.39403674 3.43312339 -9.65079351 -3.71184366 0 0 Z M-19.4375 15.0625 C-23.69917898 20.04163085 -23.69917898 20.04163085 -25.4375 26.0625 C-17.48767346 25.12722629 -13.11309052 19.89872634 -7.9765625 14.28125 C-6.05752535 11.96476758 -6.05752535 11.96476758 -6.4375 8.0625 C-12.32230954 8.0625 -15.27551075 11.10896963 -19.4375 15.0625 Z " fill="#FFFFFF" transform="translate(635.4375,83.9375)"/>
<path d="M0 0 C0.53625 0.2475 1.0725 0.495 1.625 0.75 C2.12 2.73 2.12 2.73 2.625 4.75 C2.01011719 5.24628906 1.39523437 5.74257812 0.76171875 6.25390625 C-4.20037513 10.42459759 -7.42836807 13.52077783 -9.375 19.75 C-4.81644523 18.38553463 -0.5679339 17.00870442 3.5 14.5 C4.53125 13.9225 5.5625 13.345 6.625 12.75 C7.615 13.08 8.605 13.41 9.625 13.75 C8.88484142 18.04291975 7.01310696 19.6292743 3.71875 22.2890625 C-1.86679663 26.18644019 -7.45589925 28.6996805 -14.375 27.75 C-16.8125 26.5625 -16.8125 26.5625 -18.375 24.75 C-18.625 22.0625 -18.625 22.0625 -18.375 19.75 C-27.76350191 27.18256401 -33.87019104 36.13472231 -39.515625 46.55078125 C-41.25437324 49.54245101 -43.14084165 52.11547256 -45.375 54.75 C-47.025 54.42 -48.675 54.09 -50.375 53.75 C-48.78153058 37.04604465 -39.06603745 16.82987461 -27.375 4.75 C-24.375 2.75 -24.375 2.75 -21.6875 3.125 C-20.5428125 3.434375 -20.5428125 3.434375 -19.375 3.75 C-19.89984692 8.30700425 -21.69007303 10.942874 -24.4375 14.5625 C-25.17097656 15.53832031 -25.90445313 16.51414062 -26.66015625 17.51953125 C-27.22605469 18.25558594 -27.79195312 18.99164063 -28.375 19.75 C-25.51533842 17.46666177 -22.66236424 15.17537551 -19.81640625 12.875 C-18.52347374 11.83328835 -17.23050427 10.79162258 -15.9375 9.75 C-15.29490234 9.22921875 -14.65230469 8.7084375 -13.99023438 8.171875 C-3.38397028 -0.3562074 -3.38397028 -0.3562074 0 0 Z " fill="#FFFFFF" transform="translate(800.375,82.25)"/>
<path d="M0 0 C0.53625 0.2475 1.0725 0.495 1.625 0.75 C2.12 2.73 2.12 2.73 2.625 4.75 C2.01011719 5.24628906 1.39523437 5.74257812 0.76171875 6.25390625 C-4.20037513 10.42459759 -7.42836807 13.52077783 -9.375 19.75 C-4.81644523 18.38553463 -0.5679339 17.00870442 3.5 14.5 C4.53125 13.9225 5.5625 13.345 6.625 12.75 C7.615 13.08 8.605 13.41 9.625 13.75 C8.88484142 18.04291975 7.01310696 19.6292743 3.71875 22.2890625 C-1.86679663 26.18644019 -7.45589925 28.6996805 -14.375 27.75 C-16.8125 26.5625 -16.8125 26.5625 -18.375 24.75 C-18.625 22.0625 -18.625 22.0625 -18.375 19.75 C-27.76350191 27.18256401 -33.87019104 36.13472231 -39.515625 46.55078125 C-41.25437324 49.54245101 -43.14084165 52.11547256 -45.375 54.75 C-47.025 54.42 -48.675 54.09 -50.375 53.75 C-48.78153058 37.04604465 -39.06603745 16.82987461 -27.375 4.75 C-24.375 2.75 -24.375 2.75 -21.6875 3.125 C-20.5428125 3.434375 -20.5428125 3.434375 -19.375 3.75 C-19.89984692 8.30700425 -21.69007303 10.942874 -24.4375 14.5625 C-25.17097656 15.53832031 -25.90445313 16.51414062 -26.66015625 17.51953125 C-27.22605469 18.25558594 -27.79195312 18.99164063 -28.375 19.75 C-25.51533842 17.46666177 -22.66236424 15.17537551 -19.81640625 12.875 C-18.52347374 11.83328835 -17.23050427 10.79162258 -15.9375 9.75 C-15.29490234 9.22921875 -14.65230469 8.7084375 -13.99023438 8.171875 C-3.38397028 -0.3562074 -3.38397028 -0.3562074 0 0 Z " fill="#FFFFFF" transform="translate(593.375,82.25)"/>
<path d="M0 0 C0.763125 0.20625 1.52625 0.4125 2.3125 0.625 C1.79007337 4.95038516 0.38015777 7.15905985 -2.4375 10.4375 C-8.47394046 17.72658284 -15.63141623 26.55656026 -14.6875 36.625 C-10.39554963 36.13660565 -8.64454781 35.09331974 -5.9375 31.75 C-1.59286144 26.09129307 1.25801058 19.84429903 4.07910156 13.31494141 C6.21559269 8.47282001 8.15682963 4.97414224 12.3125 1.625 C14.625 1.8125 14.625 1.8125 16.3125 2.625 C17.38590496 6.50404002 17.34148351 8.41165329 15.44140625 11.953125 C14.82749023 13.15388672 14.82749023 13.15388672 14.20117188 14.37890625 C13.32438937 16.02916846 12.44423491 17.67764402 11.56054688 19.32421875 C8.73726506 24.86441069 7.40815827 29.38568116 8.3125 35.625 C10.06256329 39.86199534 12.27660179 41.55251173 16.3125 43.625 C15.4375 48.5 15.4375 48.5 14.3125 49.625 C9.29294257 49.54134071 7.24009281 49.45176751 3.4375 46.0625 C0.87792744 42.52046525 0.11857513 38.87521431 -0.6875 34.625 C-1.35845703 35.54732422 -1.35845703 35.54732422 -2.04296875 36.48828125 C-8.38849897 44.97153806 -8.38849897 44.97153806 -12.6875 46.625 C-15.75 47.0625 -15.75 47.0625 -18.6875 46.625 C-20.99025556 44.7579009 -22.36573871 43.26852259 -23.6875 40.625 C-24.6650537 28.30782337 -19.24297162 17.51926648 -11.62890625 8.0703125 C-4.10425086 -0.57268617 -4.10425086 -0.57268617 0 0 Z " fill="#FFFFFF" transform="translate(223.6875,87.375)"/>
<path d="M0 0 C1.67542976 0.28604898 3.34385343 0.61781233 5 1 C4.49177461 5.93494215 3.02589164 9.0006447 0.3125 13.125 C-6.99387381 24.59269544 -11.86409776 36.536909 -16.33911133 49.33276367 C-17 51 -17 51 -18 52 C-19.66617115 52.04063832 -21.33388095 52.042721 -23 52 C-24.34116271 46.80501433 -23.45739144 43.08258662 -21.625 38.1875 C-21.221604 37.08414307 -21.221604 37.08414307 -20.81005859 35.95849609 C-16.08022868 23.50001294 -9.54315669 9.54315669 0 0 Z " fill="#FFFFFF" transform="translate(749,388)"/>
<path d="M0 0 C1.67542976 0.28604898 3.34385343 0.61781233 5 1 C4.49177461 5.93494215 3.02589164 9.0006447 0.3125 13.125 C-6.99387381 24.59269544 -11.86409776 36.536909 -16.33911133 49.33276367 C-17 51 -17 51 -18 52 C-19.66617115 52.04063832 -21.33388095 52.042721 -23 52 C-24.34116271 46.80501433 -23.45739144 43.08258662 -21.625 38.1875 C-21.221604 37.08414307 -21.221604 37.08414307 -20.81005859 35.95849609 C-16.08022868 23.50001294 -9.54315669 9.54315669 0 0 Z " fill="#FFFFFF" transform="translate(350,388)"/>
<path d="M0 0 C1.67542976 0.28604898 3.34385343 0.61781233 5 1 C4.49177461 5.93494215 3.02589164 9.0006447 0.3125 13.125 C-6.99387381 24.59269544 -11.86409776 36.536909 -16.33911133 49.33276367 C-17 51 -17 51 -18 52 C-19.66617115 52.04063832 -21.33388095 52.042721 -23 52 C-24.34116271 46.80501433 -23.45739144 43.08258662 -21.625 38.1875 C-21.221604 37.08414307 -21.221604 37.08414307 -20.81005859 35.95849609 C-16.08022868 23.50001294 -9.54315669 9.54315669 0 0 Z " fill="#FFFFFF" transform="translate(826,84)"/>
<path d="M0 0 C2.1875 0.3125 2.1875 0.3125 4 1 C4.63549805 2.79077148 4.63549805 2.79077148 5 5 C3.35611086 7.53840178 1.73077952 9.750481 -0.1875 12.0625 C-0.68314453 12.68705078 -1.17878906 13.31160156 -1.68945312 13.95507812 C-6.54467112 19.96477332 -6.54467112 19.96477332 -10 22 C-12.25 21.6875 -12.25 21.6875 -14 21 C-13.54326054 16.12202261 -11.10110824 13.06773487 -8.125 9.375 C-7.67769531 8.80265625 -7.23039063 8.2303125 -6.76953125 7.640625 C-2.11901997 1.74174638 -2.11901997 1.74174638 0 0 Z " fill="#FFFFFF" transform="translate(650,48)"/>
<path d="M0 0 C2.375 0.6875 2.375 0.6875 3.375 1.6875 C3.13569613 7.78974858 1.72126815 10.63098306 -2.625 14.6875 C-5.8125 15.6875 -5.8125 15.6875 -8.625 15.6875 C-9.285 15.0275 -9.945 14.3675 -10.625 13.6875 C-10.42528656 8.39509396 -9.30839546 5.47923062 -5.625 1.6875 C-2.625 -0.3125 -2.625 -0.3125 0 0 Z " fill="#FFFFFF" transform="translate(767.625,357.3125)"/>
<path d="M0 0 C2.375 0.6875 2.375 0.6875 3.375 1.6875 C3.13569613 7.78974858 1.72126815 10.63098306 -2.625 14.6875 C-5.8125 15.6875 -5.8125 15.6875 -8.625 15.6875 C-9.285 15.0275 -9.945 14.3675 -10.625 13.6875 C-10.42528656 8.39509396 -9.30839546 5.47923062 -5.625 1.6875 C-2.625 -0.3125 -2.625 -0.3125 0 0 Z " fill="#FFFFFF" transform="translate(368.625,357.3125)"/>
<path d="M0 0 C2.375 0.6875 2.375 0.6875 3.375 1.6875 C3.13569613 7.78974858 1.72126815 10.63098306 -2.625 14.6875 C-5.8125 15.6875 -5.8125 15.6875 -8.625 15.6875 C-9.285 15.0275 -9.945 14.3675 -10.625 13.6875 C-10.42528656 8.39509396 -9.30839546 5.47923062 -5.625 1.6875 C-2.625 -0.3125 -2.625 -0.3125 0 0 Z " fill="#FFFFFF" transform="translate(844.625,53.3125)"/>
<path d="M0 0 C2.31 0 4.62 0 7 0 C7 0.66 7 1.32 7 2 C4.69 2 2.38 2 0 2 C0 1.34 0 0.68 0 0 Z " fill="#FFFFFF" transform="translate(117,221)"/>
<path d="M0 0 C1.98 0 3.96 0 6 0 C6 0.33 6 0.66 6 1 C4.02 1 2.04 1 0 1 C0 0.67 0 0.34 0 0 Z " fill="#FFFFFF" transform="translate(829,275)"/>
<path d="M0 0 C0.66 0 1.32 0 2 0 C2 0.66 2 1.32 2 2 C1.34 2 0.68 2 0 2 C0 1.34 0 0.68 0 0 Z " fill="#FFFFFF" transform="translate(932,221)"/>
<path d="M0 0 C2 1 2 1 2 1 Z " fill="#FFFFFF" transform="translate(804,275)"/>
<path d="" fill="#FFFFFF" transform="translate(0,0)"/>
<path d="" fill="#FFFFFF" transform="translate(0,0)"/>
<path d="" fill="#FFFFFF" transform="translate(0,0)"/>
</svg>
